<?xml version="1.0" encoding="UTF-8"?>
<svg width="16px" height="16px" viewBox="0 0 16 16" version="1.1" xmlns="http://www.w3.org/2000/svg" xmlns:xlink="http://www.w3.org/1999/xlink">
    <!-- Generator: Sketch 62 (91390) - https://sketch.com -->
    <title>Facebook</title>
    <desc>Created with Sketch.</desc>
    <defs>
        <polygon id="path-1" points="0.00191044776 0.00071641791 15.9874627 0.00071641791 15.9874627 15.8904836 0.00191044776 15.8904836"></polygon>
    </defs>
    <g id="Facebook" stroke="none" stroke-width="1" fill="none" fill-rule="evenodd">
        <g id="Group-3">
            <mask id="mask-2" fill="white">
                <use xlink:href="#path-1"></use>
            </mask>
            <g id="Clip-2"></g>
            <path d="M15.9875463,7.99376716 C15.9875463,3.57896119 12.4085612,9.55223881e-05 7.99375522,9.55223881e-05 C3.57894925,9.55223881e-05 -3.58208955e-05,3.57896119 -3.58208955e-05,7.99376716 C-3.58208955e-05,11.9837373 2.92318806,15.2907224 6.7448,15.8904836 L6.7448,10.3045731 L4.71506866,10.3045731 L4.71506866,7.99376716 L6.7448,7.99376716 L6.7448,6.23269254 C6.7448,4.22922985 7.93811343,3.12260299 9.76414328,3.12260299 C10.6387701,3.12260299 11.5535164,3.27878209 11.5535164,3.27878209 L11.5535164,5.24594627 L10.5455164,5.24594627 C9.55244179,5.24594627 9.24282985,5.86206567 9.24282985,6.49430448 L9.24282985,7.99376716 L11.4599045,7.99376716 L11.105397,10.3045731 L9.24282985,10.3045731 L9.24282985,15.8904836 C13.0643224,15.2907224 15.9875463,11.9837373 15.9875463,7.99376716" id="Fill-1" fill="#028EB0" mask="url(#mask-2)"></path>
        </g>
    </g>
</svg>