<svg width="24" height="24" xmlns="http://www.w3.org/2000/svg" xmlns:xlink="http://www.w3.org/1999/xlink"><defs><path id="a" d="M0 0h24v24H0z"/></defs><g fill="none" fill-rule="evenodd"><mask id="b" fill="#fff"><use xlink:href="#a"/></mask><path d="M24 12.073C24 5.405 18.627 0 12 0S0 5.405 0 12.073C0 18.1 4.388 23.094 10.125 24v-8.437H7.078v-3.49h3.047v-2.66c0-3.026 1.791-4.697 4.533-4.697 1.313 0 2.686.236 2.686.236v2.971H15.83c-1.491 0-1.956.93-1.956 1.886v2.264h3.328l-.532 3.49h-2.796V24C19.612 23.094 24 18.1 24 12.073" fill="#1F3348" mask="url(#b)"/></g></svg>