<?xml version="1.0" encoding="UTF-8"?>
<svg width="16px" height="16px" viewBox="0 0 16 16" version="1.1" xmlns="http://www.w3.org/2000/svg" xmlns:xlink="http://www.w3.org/1999/xlink">
    <!-- Generator: Sketch 62 (91390) - https://sketch.com -->
    <title>Instagram</title>
    <desc>Created with Sketch.</desc>
    <defs>
        <polygon id="path-1" points="0 2.75862069e-05 16 2.75862069e-05 16 16 0 16"></polygon>
    </defs>
    <g id="Instagram" stroke="none" stroke-width="1" fill="none" fill-rule="evenodd">
        <g id="Group-9">
            <g id="Group-8">
                <g id="Group-3">
                    <mask id="mask-2" fill="white">
                        <use xlink:href="#path-1"></use>
                    </mask>
                    <g id="Clip-2"></g>
                    <path d="M8,1.4414069 C10.1361379,1.4414069 10.3891034,1.44968276 11.2326897,1.48802759 C12.0126897,1.52375172 12.4362759,1.65395862 12.7182069,1.76361379 C13.0915862,1.90871724 13.358069,2.08209655 13.637931,2.36195862 C13.917931,2.64195862 14.0913103,2.90844138 14.2364138,3.28182069 C14.346069,3.56375172 14.4764138,3.98733793 14.5118621,4.76733793 C14.5503448,5.61092414 14.5584828,5.86388966 14.5584828,8.00002759 C14.5584828,10.1360276 14.5503448,10.389131 14.5118621,11.2325793 C14.4764138,12.0127172 14.346069,12.4363034 14.2364138,12.7182345 C14.0913103,13.0916138 13.917931,13.3580966 13.637931,13.6380966 C13.358069,13.9179586 13.0915862,14.0913379 12.7182069,14.2364414 C12.4362759,14.3460966 12.0126897,14.4763034 11.2326897,14.5118897 C10.3892414,14.5503724 10.1362759,14.5586483 8,14.5586483 C5.86372414,14.5586483 5.61075862,14.5503724 4.76731034,14.5118897 C3.98731034,14.4763034 3.56372414,14.3460966 3.2817931,14.2364414 C2.90841379,14.0913379 2.64193103,13.9179586 2.36206897,13.6380966 C2.08206897,13.3580966 1.90868966,13.0916138 1.76358621,12.7182345 C1.65393103,12.4363034 1.52358621,12.0127172 1.48813793,11.2325793 C1.44951724,10.389131 1.44151724,10.1360276 1.44151724,8.00002759 C1.44151724,5.86388966 1.44951724,5.61092414 1.48813793,4.76733793 C1.52358621,3.98733793 1.65393103,3.56375172 1.76358621,3.28182069 C1.90868966,2.90844138 2.08206897,2.64195862 2.36193103,2.36195862 C2.64193103,2.08209655 2.90841379,1.90871724 3.2817931,1.76361379 C3.56372414,1.65395862 3.98731034,1.52375172 4.76731034,1.48802759 C5.61089655,1.44968276 5.86386207,1.4414069 8,1.4414069 M8,2.75862069e-05 C5.82731034,2.75862069e-05 5.55489655,0.00913103448 4.70151724,0.0480275862 C3.85006897,0.087062069 3.26855172,0.222234483 2.75972414,0.420027586 C2.23365517,0.624441379 1.78744828,0.898096552 1.34275862,1.34264828 C0.897931034,1.78747586 0.624413793,2.23354483 0.42,2.75975172 C0.222206897,3.26857931 0.0870344828,3.85009655 0.048137931,4.70168276 C0.00924137931,5.55492414 0,5.82733793 0,8.00002759 C0,10.1727172 0.00924137931,10.4449931 0.048137931,11.2983724 C0.0870344828,12.1499586 0.222206897,12.7314759 0.42,13.2403034 C0.624413793,13.7663724 0.897931034,14.2125793 1.34275862,14.657269 C1.78744828,15.1020966 2.23365517,15.3754759 2.75972414,15.5800276 C3.26855172,15.7776828 3.85006897,15.9129931 4.70151724,15.9518897 C5.55489655,15.9907862 5.82731034,16.0000276 8,16.0000276 C10.1726897,16.0000276 10.4451034,15.9907862 11.2983448,15.9518897 C12.149931,15.9129931 12.7314483,15.7776828 13.2402759,15.5800276 C13.7663448,15.3754759 14.2125517,15.1020966 14.6572414,14.657269 C15.102069,14.2125793 15.3755862,13.7663724 15.58,13.2403034 C15.7777931,12.7314759 15.9129655,12.1499586 15.9518621,11.2983724 C15.9907586,10.4449931 16,10.1727172 16,8.00002759 C16,5.82733793 15.9907586,5.55492414 15.9518621,4.70168276 C15.9129655,3.85009655 15.7777931,3.26857931 15.58,2.75975172 C15.3755862,2.23354483 15.102069,1.78747586 14.6572414,1.34264828 C14.2125517,0.898096552 13.7663448,0.624441379 13.2402759,0.420027586 C12.7314483,0.222234483 12.149931,0.087062069 11.2983448,0.0480275862 C10.4451034,0.00913103448 10.1726897,2.75862069e-05 8,2.75862069e-05" id="Fill-1" fill="#028EB0" mask="url(#mask-2)"></path>
                </g>
                <path d="M8,3.89183448 C5.73117241,3.89183448 3.89186207,5.73114483 3.89186207,7.99997241 C3.89186207,10.2688 5.73117241,12.1081103 8,12.1081103 C10.2688276,12.1081103 12.1081379,10.2688 12.1081379,7.99997241 C12.1081379,5.73114483 10.2688276,3.89183448 8,3.89183448 M8,10.6665931 C6.52717241,10.6665931 5.33337931,9.4728 5.33337931,7.99997241 C5.33337931,6.52714483 6.52717241,5.33335172 8,5.33335172 C9.47282759,5.33335172 10.6666207,6.52714483 10.6666207,7.99997241 C10.6666207,9.4728 9.47282759,10.6665931 8,10.6665931" id="Fill-4" fill="#028EB0"></path>
                <path d="M13.2304,3.72953103 C13.2304,4.25987586 12.8006069,4.68953103 12.2704,4.68953103 C11.7401931,4.68953103 11.3104,4.25987586 11.3104,3.72953103 C11.3104,3.19932414 11.7401931,2.76953103 12.2704,2.76953103 C12.8006069,2.76953103 13.2304,3.19932414 13.2304,3.72953103" id="Fill-6" fill="#028EB0"></path>
            </g>
        </g>
    </g>
</svg>