<?xml version="1.0" encoding="UTF-8"?>
<svg width="13px" height="12px" viewBox="0 0 13 12" version="1.1" xmlns="http://www.w3.org/2000/svg" xmlns:xlink="http://www.w3.org/1999/xlink">
    <!-- Generator: Sketch 62 (91390) - https://sketch.com -->
    <title>List icon</title>
    <desc>Created with Sketch.</desc>
    <g id="List-icon" stroke="none" stroke-width="1" fill="none" fill-rule="evenodd">
        <g fill="#FFFFFF">
            <polygon id="Fill-1" points="0.5 3.27272727 3.77272727 3.27272727 3.77272727 0 0.5 0"></polygon>
            <polygon id="Fill-2" points="4.86363636 3.27272727 8.13636364 3.27272727 8.13636364 -1.2390089e-13 4.86363636 -1.2390089e-13"></polygon>
            <polygon id="Fill-3" points="9.22727273 3.27272727 12.5 3.27272727 12.5 -1.2390089e-13 9.22727273 -1.2390089e-13"></polygon>
            <polygon id="Fill-4" points="0.5 7.63636364 3.77272727 7.63636364 3.77272727 4.36363636 0.5 4.36363636"></polygon>
            <polygon id="Fill-5" points="4.86363636 7.63636364 8.13636364 7.63636364 8.13636364 4.36363636 4.86363636 4.36363636"></polygon>
            <polygon id="Fill-6" points="9.22727273 7.63636364 12.5 7.63636364 12.5 4.36363636 9.22727273 4.36363636"></polygon>
            <polygon id="Fill-7" points="0.5 12 3.77272727 12 3.77272727 8.72727273 0.5 8.72727273"></polygon>
            <polygon id="Fill-8" points="4.86363636 12 8.13636364 12 8.13636364 8.72727273 4.86363636 8.72727273"></polygon>
            <polygon id="Fill-9" points="9.22727273 12 12.5 12 12.5 8.72727273 9.22727273 8.72727273"></polygon>
        </g>
    </g>
</svg>