<?xml version="1.0" encoding="UTF-8"?>
<svg width="13px" height="13px" viewBox="0 0 9 13" version="1.1" xmlns="http://www.w3.org/2000/svg" xmlns:xlink="http://www.w3.org/1999/xlink">
    <defs>
        <polygon id="path" points="0 0 8.66666667 0 8.66666667 13 0 13"></polygon>
    </defs>
    <g stroke="none" stroke-width="1" fill="none" fill-rule="evenodd">
        <mask id="mask" fill="white">
            <use xlink:href="#path"></use>
        </mask>
        <path d="M4.33333333,5.99671025 C3.46976213,5.99671025 2.76965036,5.30479415 2.76965036,4.45133211 C2.76965036,3.59787007 3.46976213,2.90595397 4.33333333,2.90595397 C5.19690454,2.90595397 5.8970163,3.59787007 5.8970163,4.45133211 C5.8970163,5.30479415 5.19690454,5.99671025 4.33333333,5.99671025 M4.33333333,0 C1.94019243,0 0,1.9174801 0,4.28276243 C0,7.32965938 3.17995724,11.5643482 4.33333333,13 C5.48670943,11.5643482 8.66666667,7.32965938 8.66666667,4.28276243 C8.66666667,1.9174801 6.72663216,0 4.33333333,0" fill="#525252" mask="url(#mask)"></path>
    </g>
</svg>
