<svg width="24" height="24" xmlns="http://www.w3.org/2000/svg" xmlns:xlink="http://www.w3.org/1999/xlink"><defs><path id="a" d="M0 0h24v24H0z"/></defs><g fill="none" fill-rule="evenodd"><mask id="b" fill="#fff"><use xlink:href="#a"/></mask><path d="M12 2.162c3.204 0 3.584.013 4.849.07 1.17.054 1.805.249 2.228.413.56.218.96.478 1.38.898.42.42.68.82.898 1.38.164.423.36 1.058.413 2.228.058 1.265.07 1.645.07 4.849s-.012 3.584-.07 4.849c-.053 1.17-.249 1.805-.413 2.228-.218.56-.478.96-.898 1.38-.42.42-.82.68-1.38.898-.423.164-1.058.36-2.228.413-1.265.058-1.645.07-4.849.07s-3.584-.012-4.849-.07c-1.17-.054-1.805-.249-2.228-.413a3.718 3.718 0 01-1.38-.898c-.42-.42-.68-.82-.898-1.38-.164-.423-.36-1.058-.413-2.228-.058-1.265-.07-1.645-.07-4.849s.012-3.584.07-4.849c.053-1.17.249-1.805.413-2.228.218-.56.478-.96.898-1.38.42-.42.82-.68 1.38-.898.423-.164 1.058-.36 2.228-.413 1.265-.057 1.645-.07 4.849-.07M12 0C8.741 0 8.332.014 7.052.072 5.775.131 4.902.333 4.14.63a5.884 5.884 0 00-2.126 1.384A5.88 5.88 0 00.63 4.14c-.297.763-.5 1.635-.558 2.913C.014 8.333 0 8.74 0 12s.014 3.667.072 4.948c.059 1.277.261 2.15.558 2.912a5.88 5.88 0 001.384 2.126A5.882 5.882 0 004.14 23.37c.763.297 1.635.5 2.912.558C8.332 23.986 8.741 24 12 24c3.259 0 3.668-.014 4.948-.072 1.277-.059 2.15-.261 2.912-.558a5.882 5.882 0 002.126-1.384 5.88 5.88 0 001.384-2.126c.297-.763.5-1.635.558-2.912.058-1.28.072-1.689.072-4.948 0-3.259-.014-3.668-.072-4.947-.059-1.278-.261-2.15-.558-2.913a5.88 5.88 0 00-1.384-2.126A5.884 5.884 0 0019.86.63c-.763-.297-1.635-.5-2.912-.558C15.668.014 15.259 0 12 0" fill="#1F3348" mask="url(#b)"/><path d="M12 5.838a6.162 6.162 0 100 12.324 6.162 6.162 0 000-12.324M12 16a4 4 0 110-8 4 4 0 010 8m7.846-10.406a1.44 1.44 0 11-2.88 0 1.44 1.44 0 012.88 0" fill="#1F3348"/></g></svg>