<svg width="32" height="32" xmlns="http://www.w3.org/2000/svg" xmlns:xlink="http://www.w3.org/1999/xlink"><defs><path id="a" d="M0 .029h16.471V16.5H0z"/></defs><g transform="translate(1 1)" fill="none" fill-rule="evenodd"><circle stroke="#019A78" stroke-width="1.5" cx="15" cy="15" r="15"/><g transform="translate(6.75 6.75)"><mask id="b" fill="#fff"><use xlink:href="#a"/></mask><path d="M8.236 1.513c2.199 0 2.46.008 3.328.048.803.036 1.239.17 1.529.283.384.15.659.328.947.616.288.288.466.563.616.947.113.29.247.727.283 1.53.04.868.048 1.128.048 3.327 0 2.2-.008 2.46-.048 3.328-.036.803-.17 1.24-.283 1.53-.15.384-.328.658-.616.946a2.552 2.552 0 01-.947.616c-.29.113-.726.247-1.53.284-.868.04-1.128.048-3.327.048-2.2 0-2.46-.008-3.328-.048-.803-.037-1.24-.17-1.53-.284a2.552 2.552 0 01-.946-.616 2.551 2.551 0 01-.616-.946c-.113-.29-.248-.727-.284-1.53-.04-.868-.048-1.129-.048-3.328s.008-2.46.048-3.328c.036-.802.17-1.239.284-1.529.149-.384.327-.659.616-.947.288-.288.562-.466.946-.616.29-.113.727-.247 1.53-.283.868-.04 1.129-.048 3.328-.048m0-1.484c-2.237 0-2.517.01-3.396.05-.877.04-1.475.178-2 .382-.54.21-1 .492-1.458.95-.458.458-.74.917-.95 1.459C.23 3.394.09 3.992.05 4.869.01 5.747 0 6.028 0 8.264c0 2.237.01 2.517.05 3.396.04.876.179 1.475.382 2 .21.54.492 1 .95 1.458.458.457.917.74 1.459.95.524.203 1.122.343 2 .382.878.04 1.158.05 3.395.05 2.236 0 2.517-.01 3.395-.05.877-.04 1.475-.179 2-.382.54-.21 1-.493 1.458-.95a4.04 4.04 0 00.95-1.459c.204-.524.343-1.123.383-2 .04-.878.05-1.158.05-3.395 0-2.236-.01-2.517-.05-3.395-.04-.877-.18-1.475-.383-2a4.037 4.037 0 00-.95-1.458A4.035 4.035 0 0013.63.46c-.524-.204-1.122-.343-1.999-.383-.878-.04-1.159-.05-3.395-.05" fill="#019A78" mask="url(#b)"/></g><path d="M15 10.875a4.125 4.125 0 100 8.25 4.125 4.125 0 000-8.25m0 6.803a2.678 2.678 0 110-5.356 2.678 2.678 0 010 5.356M20.5 10.531a1.031 1.031 0 11-2.062 0 1.031 1.031 0 012.062 0" fill="#019A78"/></g></svg>