<svg width="32" height="32" xmlns="http://www.w3.org/2000/svg" xmlns:xlink="http://www.w3.org/1999/xlink"><defs><path id="a" d="M0 0h18v15H0z"/></defs><g transform="translate(1 1)" fill="none" fill-rule="evenodd"><circle stroke="#019A78" stroke-width="1.5" cx="15" cy="15" r="15"/><g transform="translate(6.75 8.25)"><mask id="b" fill="#fff"><use xlink:href="#a"/></mask><path d="M17.503.277a7.288 7.288 0 01-2.345.92A3.647 3.647 0 0012.462 0C10.422 0 8.77 1.696 8.77 3.786c0 .298.032.587.096.864-3.07-.158-5.79-1.665-7.612-3.957-.318.56-.5 1.21-.5 1.904a3.81 3.81 0 001.643 3.152 3.598 3.598 0 01-1.673-.474v.048c0 1.834 1.273 3.365 2.962 3.713a3.611 3.611 0 01-1.667.064c.47 1.505 1.833 2.6 3.45 2.63A7.295 7.295 0 010 13.3 10.268 10.268 0 005.66 15c6.793 0 10.508-5.77 10.508-10.774 0-.164-.003-.327-.01-.49A7.625 7.625 0 0018 1.776a7.232 7.232 0 01-2.12.596A3.785 3.785 0 0017.502.277" fill="#019A78" mask="url(#b)"/></g></g></svg>