<?xml version="1.0" encoding="UTF-8"?>
<svg width="16px" height="16px" viewBox="0 0 16 16" version="1.1" xmlns="http://www.w3.org/2000/svg" xmlns:xlink="http://www.w3.org/1999/xlink">
    <!-- Generator: Sketch 62 (91390) - https://sketch.com -->
    <title>Phone-icon</title>
    <desc>Created with Sketch.</desc>
    <g id="Phone-icon" stroke="none" stroke-width="1" fill="none" fill-rule="evenodd">
        <path d="M8.59664594,10.7882648 L9.7502663,9.64243485 C9.84447143,9.54889234 9.99297536,9.54072383 10.096601,9.62346285 L13.1866602,12.0902186 C13.2883233,12.1713766 13.3155381,12.3155111 13.2505104,12.4286844 L11.6180139,15.2681609 C11.546575,15.3922695 11.3903515,15.4366692 11.2656605,15.3671052 C9.90766738,14.6091473 2.88689897,10.2725952 3.00138437,1.69896231 C3.0030853,1.56932029 3.0997764,1.45996776 3.22721501,1.44178626 L6.2984332,1.00266342 C6.43607737,0.982900921 6.56508607,1.07512594 6.59190836,1.21254122 L7.34986716,5.08678247 C7.37538105,5.21734674 7.30067115,5.34633002 7.17506431,5.38783128 C6.79248679,5.51391605 6.00561225,5.7734636 5.59555823,5.90863913 C5.45320381,5.95541039 5.37744718,6.11364217 5.43240018,6.25395595 C6.14155549,8.0668363 7.15949429,9.56984059 8.21799364,10.7768026 C8.31690903,10.8895806 8.49027264,10.8940601 8.59664594,10.7882648 Z" id="Phone-Icon" stroke="#028EB0"></path>
    </g>
</svg>