<?xml version="1.0" encoding="UTF-8"?>
<svg width="16px" height="16px" viewBox="0 0 16 16" version="1.1" xmlns="http://www.w3.org/2000/svg" xmlns:xlink="http://www.w3.org/1999/xlink">
    <!-- Generator: Sketch 62 (91390) - https://sketch.com -->
    <title>Twitter</title>
    <desc>Created with Sketch.</desc>
    <g id="Twitter" stroke="none" stroke-width="1" fill="none" fill-rule="evenodd">
        <path d="M8,0 C3.58172,0 0,3.58176 0,8 C0,12.41828 3.58172,16 8,16 C12.41828,16 16,12.41828 16,8 C16,3.58176 12.41828,0 8,0 M12.01788,6.48324 C12.02172,6.56592 12.0234,6.64908 12.0234,6.73256 C12.0234,9.28092 10.08352,12.21972 6.53624,12.21972 C5.44692,12.21972 4.43352,11.90048 3.58,11.35352 C3.73092,11.37128 3.88444,11.38024 4.04004,11.38024 C4.94364,11.38024 5.77512,11.072 6.43532,10.55464 C5.59108,10.539 4.87916,9.98136 4.63368,9.2152 C4.75112,9.23764 4.87196,9.24996 4.9962,9.24996 C5.17216,9.24996 5.34264,9.2262 5.5046,9.18216 C4.62224,9.00532 3.95736,8.22556 3.95736,7.2914 C3.95736,7.28296 3.95736,7.27488 3.9578,7.26688 C4.21772,7.4114 4.51496,7.49836 4.83124,7.50808 C4.31352,7.16252 3.97304,6.57192 3.97304,5.90276 C3.97304,5.54956 4.06844,5.2184 4.23424,4.93352 C5.18532,6.1004 6.6066,6.86784 8.2094,6.94844 C8.17632,6.80724 8.15936,6.66004 8.15936,6.50872 C8.15936,5.444 9.02308,4.58032 10.0882,4.58032 C10.6428,4.58032 11.144,4.81472 11.49592,5.1896 C11.9352,5.10308 12.3478,4.9424 12.72048,4.72148 C12.57632,5.17176 12.2706,5.54956 11.87248,5.78828 C12.26256,5.74164 12.6344,5.6382 12.98,5.48468 C12.72176,5.8714 12.39444,6.21104 12.01788,6.48324" id="Fill-1" fill="#028EB0"></path>
    </g>
</svg>