<svg width="24" height="24" xmlns="http://www.w3.org/2000/svg"><path d="M0 12c0 6.627 5.373 12 12 12s12-5.373 12-12S18.627 0 12 0 0 5.373 0 12zm17.735-2.034c0 3.842-2.972 8.274-8.406 8.274A8.46 8.46 0 014.8 16.934c.231.027.466.04.705.04a5.988 5.988 0 003.67-1.245 2.952 2.952 0 01-2.76-2.02 2.998 2.998 0 001.333-.05c-1.351-.266-2.37-1.442-2.37-2.85v-.038c.399.218.854.35 1.339.364a2.894 2.894 0 01-1.315-2.42c0-.533.146-1.033.4-1.462a8.433 8.433 0 006.09 3.038 2.86 2.86 0 01-.077-.663c0-1.606 1.323-2.908 2.955-2.908.85 0 1.617.353 2.157.919a5.977 5.977 0 001.875-.706 2.927 2.927 0 01-1.299 1.609 5.97 5.97 0 001.697-.458 5.959 5.959 0 01-1.474 1.506c.006.124.009.25.009.376z" fill="#1F3348" fill-rule="evenodd"/></svg>