<svg id="Layer_1" data-name="Layer 1" xmlns="http://www.w3.org/2000/svg" viewBox="0 0 468.05 479.35"><defs><style>.cls-1,.cls-12,.cls-16,.cls-19,.cls-3,.cls-4,.cls-6,.cls-7{fill:none;}.cls-13,.cls-14,.cls-2{fill:#68c193;}.cls-14,.cls-3{stroke:#68c193;}.cls-10,.cls-12,.cls-13,.cls-14,.cls-15,.cls-19,.cls-3,.cls-4,.cls-6,.cls-7,.cls-8{stroke-linecap:round;}.cls-10,.cls-12,.cls-13,.cls-14,.cls-15,.cls-18,.cls-19,.cls-3,.cls-4,.cls-6,.cls-8{stroke-linejoin:round;}.cls-10,.cls-12,.cls-13,.cls-14,.cls-15,.cls-16,.cls-17,.cls-18,.cls-3,.cls-4,.cls-6,.cls-8{stroke-width:0.7px;}.cls-13,.cls-15,.cls-16,.cls-17,.cls-4{stroke:#1f3348;}.cls-5,.cls-8{fill:#019a78;}.cls-6,.cls-8{stroke:#019a78;}.cls-10,.cls-12,.cls-18,.cls-19,.cls-7{stroke:#fff;}.cls-16,.cls-17,.cls-7{stroke-miterlimit:10;}.cls-7{stroke-width:10px;}.cls-9{fill:#e1edff;}.cls-10,.cls-11,.cls-15,.cls-17,.cls-18{fill:#fff;}.cls-19{stroke-width:0.6px;}</style></defs><polygon class="cls-1" points="148.9 140.89 148.9 140.89 148.91 110.79 148.9 140.89"/><path class="cls-2" d="M144.17,110.17c0-8.1,6.07-14.66,13.57-14.68h0c7.5,0,13.58,6.58,13.58,14.68v30.72h5.06v-31c0-11.11-8.34-19.52-18.64-19.54s-18.63,8.43-18.63,19.54l0,31h5.06Z"/><path class="cls-3" d="M144.17,110.17c0-8.1,6.07-14.66,13.57-14.68h0c7.5,0,13.58,6.58,13.58,14.68v30.72h5.06v-31c0-11.11-8.34-19.52-18.64-19.54s-18.63,8.43-18.63,19.54l0,31h5.06Z"/><path class="cls-2" d="M157.71,95.49h0Z"/><path class="cls-4" d="M157.71,95.49h0Z"/><path class="cls-2" d="M157.74,101.24h0c4.88,0,8.84,4.28,8.84,9.55v30.1h4.74V110.17c0-8.1-6.08-14.66-13.58-14.68s-13.57,6.58-13.57,14.68l0,30.72h4.75v-30.1C148.91,105.52,152.86,101.25,157.74,101.24Z"/><path class="cls-4" d="M157.74,101.24h0c4.88,0,8.84,4.28,8.84,9.55v30.1h4.74V110.17c0-8.1-6.08-14.66-13.58-14.68s-13.57,6.58-13.57,14.68l0,30.72h4.75v-30.1C148.91,105.52,152.86,101.25,157.74,101.24Z"/><polygon class="cls-2" points="144.15 140.89 144.16 110.17 144.15 140.89 144.15 140.89"/><polygon class="cls-4" points="144.15 140.89 144.16 110.17 144.15 140.89 144.15 140.89"/><path class="cls-2" d="M157.72,101.24h0Z"/><path class="cls-4" d="M157.72,101.24h0Z"/><path class="cls-2" d="M153.73,111.21a4.18,4.18,0,0,1,4-4.34h0a4.19,4.19,0,0,1,4,4.34v29.68h4.82v-30.1c0-5.27-4-9.54-8.84-9.55s-8.83,4.28-8.83,9.55v30.1h4.82Z"/><path class="cls-4" d="M153.73,111.21a4.18,4.18,0,0,1,4-4.34h0a4.19,4.19,0,0,1,4,4.34v29.68h4.82v-30.1c0-5.27-4-9.54-8.84-9.55s-8.83,4.28-8.83,9.55v30.1h4.82Z"/><polygon class="cls-2" points="157.73 106.86 157.74 106.87 157.75 106.86 157.73 106.86"/><polygon class="cls-4" points="157.73 106.86 157.74 106.87 157.75 106.86 157.73 106.86"/><path class="cls-2" d="M157.74,106.87a4.18,4.18,0,0,0-4,4.34v29.68h8.05V111.21A4.19,4.19,0,0,0,157.74,106.87Z"/><path class="cls-4" d="M157.74,106.87a4.18,4.18,0,0,0-4,4.34v29.68h8.05V111.21A4.19,4.19,0,0,0,157.74,106.87Z"/><polygon class="cls-1" points="111.55 140.89 111.55 140.89 111.56 129.46 111.55 140.89"/><path class="cls-5" d="M106.82,128.84c0-8.1,6.08-14.66,13.58-14.68h0c7.5,0,13.58,6.58,13.58,14.68v12h5.06V128.56C139,117.45,130.7,109,120.4,109s-18.64,8.43-18.64,19.54v12.33h5.06Z"/><path class="cls-6" d="M106.82,128.84c0-8.1,6.08-14.66,13.58-14.68h0c7.5,0,13.58,6.58,13.58,14.68v12h5.06V128.56C139,117.45,130.7,109,120.4,109s-18.64,8.43-18.64,19.54v12.33h5.06Z"/><path class="cls-5" d="M120.37,114.16h0Z"/><path class="cls-4" d="M120.37,114.16h0Z"/><path class="cls-5" d="M120.4,119.91h0c4.88,0,8.84,4.28,8.84,9.55v11.43H134v-12c0-8.1-6.08-14.66-13.58-14.68s-13.58,6.58-13.58,14.68v12h4.74V129.46C111.56,124.19,115.52,119.92,120.4,119.91Z"/><path class="cls-4" d="M120.4,119.91h0c4.88,0,8.84,4.28,8.84,9.55v11.43H134v-12c0-8.1-6.08-14.66-13.58-14.68s-13.58,6.58-13.58,14.68v12h4.74V129.46C111.56,124.19,115.52,119.92,120.4,119.91Z"/><polygon class="cls-2" points="106.81 140.89 106.82 128.84 106.81 140.89 106.81 140.89"/><polygon class="cls-4" points="106.81 140.89 106.82 128.84 106.81 140.89 106.81 140.89"/><path class="cls-5" d="M120.38,119.91h0Z"/><path class="cls-4" d="M120.38,119.91h0Z"/><path class="cls-5" d="M116.38,129.88a4.19,4.19,0,0,1,4-4.34h0a4.19,4.19,0,0,1,4,4.34v11h4.82V129.46c0-5.27-4-9.54-8.84-9.55s-8.84,4.28-8.84,9.55v11.43h4.82Z"/><path class="cls-4" d="M116.38,129.88a4.19,4.19,0,0,1,4-4.34h0a4.19,4.19,0,0,1,4,4.34v11h4.82V129.46c0-5.27-4-9.54-8.84-9.55s-8.84,4.28-8.84,9.55v11.43h4.82Z"/><polygon class="cls-5" points="120.39 125.54 120.4 125.54 120.41 125.54 120.39 125.54"/><polygon class="cls-4" points="120.39 125.54 120.4 125.54 120.41 125.54 120.39 125.54"/><path class="cls-5" d="M120.4,125.54a4.19,4.19,0,0,0-4,4.34v11h8.06v-11A4.19,4.19,0,0,0,120.4,125.54Z"/><path class="cls-4" d="M120.4,125.54a4.19,4.19,0,0,0-4,4.34v11h8.06v-11A4.19,4.19,0,0,0,120.4,125.54Z"/><polygon class="cls-1" points="43.55 202.89 43.55 202.89 43.56 191.46 43.55 202.89"/><path class="cls-2" d="M38.82,190.84c0-8.1,6.08-14.66,13.58-14.68h0c7.5,0,13.58,6.58,13.58,14.68v12h5.06V190.56C71,179.45,62.7,171,52.4,171s-18.64,8.43-18.64,19.54v12.33h5.06Z"/><path class="cls-3" d="M38.82,190.84c0-8.1,6.08-14.66,13.58-14.68h0c7.5,0,13.58,6.58,13.58,14.68v12h5.06V190.56C71,179.45,62.7,171,52.4,171s-18.64,8.43-18.64,19.54v12.33h5.06Z"/><path class="cls-2" d="M52.37,176.16h0Z"/><path class="cls-4" d="M52.37,176.16h0Z"/><path class="cls-2" d="M52.4,181.91h0c4.88,0,8.84,4.28,8.84,9.55v11.43H66v-12c0-8.1-6.08-14.66-13.58-14.68s-13.58,6.58-13.58,14.68v12h4.74V191.46C43.56,186.19,47.52,181.92,52.4,181.91Z"/><path class="cls-4" d="M52.4,181.91h0c4.88,0,8.84,4.28,8.84,9.55v11.43H66v-12c0-8.1-6.08-14.66-13.58-14.68s-13.58,6.58-13.58,14.68v12h4.74V191.46C43.56,186.19,47.52,181.92,52.4,181.91Z"/><polygon class="cls-2" points="38.81 202.89 38.82 190.84 38.81 202.89 38.81 202.89"/><polygon class="cls-4" points="38.81 202.89 38.82 190.84 38.81 202.89 38.81 202.89"/><path class="cls-2" d="M52.38,181.91h0Z"/><path class="cls-4" d="M52.38,181.91h0Z"/><path class="cls-2" d="M48.38,191.88a4.19,4.19,0,0,1,4-4.34h0a4.19,4.19,0,0,1,4,4.34v11h4.82V191.46c0-5.27-4-9.54-8.84-9.55s-8.84,4.28-8.84,9.55v11.43h4.82Z"/><path class="cls-4" d="M48.38,191.88a4.19,4.19,0,0,1,4-4.34h0a4.19,4.19,0,0,1,4,4.34v11h4.82V191.46c0-5.27-4-9.54-8.84-9.55s-8.84,4.28-8.84,9.55v11.43h4.82Z"/><polygon class="cls-2" points="52.39 187.54 52.4 187.54 52.41 187.54 52.39 187.54"/><polygon class="cls-4" points="52.39 187.54 52.4 187.54 52.41 187.54 52.39 187.54"/><path class="cls-2" d="M52.4,187.54a4.19,4.19,0,0,0-4,4.34v11h8.06v-11A4.19,4.19,0,0,0,52.4,187.54Z"/><path class="cls-4" d="M52.4,187.54a4.19,4.19,0,0,0-4,4.34v11h8.06v-11A4.19,4.19,0,0,0,52.4,187.54Z"/><rect class="cls-2" x="238.79" y="56.62" width="137.57" height="364.73"/><rect class="cls-2" x="101.21" y="137.83" width="137.57" height="283.43"/><rect class="cls-2" x="165.47" y="69.76" width="137.57" height="402" transform="translate(505.01 36.5) rotate(90)"/><polygon class="cls-2" points="238.75 56.85 376.25 0.85 376.25 56.85 238.75 56.85"/><polygon class="cls-2" points="238.75 420.85 101.25 479.35 101.25 420.85 238.75 420.85"/><polyline class="cls-7" points="209.75 137.85 209.75 257.85 435.75 257.85"/><polyline class="cls-7" points="251.34 258.85 251.34 300.35 22.25 300.35"/><line class="cls-7" x1="309.72" y1="257.85" x2="309.72" y2="56.85"/><line class="cls-7" x1="234.25" y1="56.35" x2="382.25" y2="56.35"/><line class="cls-7" x1="168.59" y1="300.24" x2="168.59" y2="463.35"/><polygon class="cls-8" points="291.89 50.89 291.89 50.89 291.91 20.79 291.89 50.89"/><path class="cls-5" d="M287.17,20.17c0-8.1,6.07-14.66,13.57-14.68h0c7.5,0,13.58,6.58,13.58,14.68V50.89h5.06v-31C319.38,8.78,311,.37,300.74.35s-18.63,8.43-18.63,19.54l0,31h5.06Z"/><path class="cls-6" d="M287.17,20.17c0-8.1,6.07-14.66,13.57-14.68h0c7.5,0,13.58,6.58,13.58,14.68V50.89h5.06v-31C319.38,8.78,311,.37,300.74.35s-18.63,8.43-18.63,19.54l0,31h5.06Z"/><path class="cls-5" d="M300.71,5.49h0Z"/><path class="cls-6" d="M300.71,5.49h0Z"/><path class="cls-5" d="M300.74,11.24h0c4.88,0,8.84,4.28,8.84,9.55v30.1h4.74V20.17c0-8.1-6.08-14.66-13.58-14.68s-13.57,6.58-13.57,14.68l0,30.72h4.75V20.79C291.91,15.52,295.86,11.25,300.74,11.24Z"/><path class="cls-6" d="M300.74,11.24h0c4.88,0,8.84,4.28,8.84,9.55v30.1h4.74V20.17c0-8.1-6.08-14.66-13.58-14.68s-13.57,6.58-13.57,14.68l0,30.72h4.75V20.79C291.91,15.52,295.86,11.25,300.74,11.24Z"/><polygon class="cls-5" points="287.15 50.89 287.17 20.17 287.15 50.89 287.15 50.89"/><polygon class="cls-6" points="287.15 50.89 287.17 20.17 287.15 50.89 287.15 50.89"/><path class="cls-5" d="M300.72,11.24h0Z"/><path class="cls-6" d="M300.72,11.24h0Z"/><path class="cls-5" d="M296.73,21.21a4.18,4.18,0,0,1,4-4.34h0a4.19,4.19,0,0,1,4,4.34V50.89h4.82V20.79c0-5.27-4-9.54-8.84-9.55s-8.83,4.28-8.83,9.55v30.1h4.82Z"/><path class="cls-6" d="M296.73,21.21a4.18,4.18,0,0,1,4-4.34h0a4.19,4.19,0,0,1,4,4.34V50.89h4.82V20.79c0-5.27-4-9.54-8.84-9.55s-8.83,4.28-8.83,9.55v30.1h4.82Z"/><polygon class="cls-5" points="300.73 16.86 300.74 16.87 300.75 16.86 300.73 16.86"/><polygon class="cls-6" points="300.73 16.86 300.74 16.87 300.75 16.86 300.73 16.86"/><path class="cls-5" d="M300.74,16.87a4.18,4.18,0,0,0-4,4.34V50.89h8V21.21A4.19,4.19,0,0,0,300.74,16.87Z"/><path class="cls-6" d="M300.74,16.87a4.18,4.18,0,0,0-4,4.34V50.89h8V21.21A4.19,4.19,0,0,0,300.74,16.87Z"/><rect class="cls-9" x="314.7" y="220.04" width="121.12" height="32.82"/><polygon class="cls-10" points="324.55 51.29 324.55 51.29 324.56 47.66 324.55 51.29"/><path class="cls-11" d="M319.82,47c0-8.1,6.08-14.66,13.58-14.68h0C340.9,32.38,347,38.94,347,47v4.25h5.06V46.76c0-11.11-8.34-19.52-18.64-19.54s-18.64,8.43-18.64,19.54v4.53h5.06Z"/><path class="cls-12" d="M319.82,47c0-8.1,6.08-14.66,13.58-14.68h0C340.9,32.38,347,38.94,347,47v4.25h5.06V46.76c0-11.11-8.34-19.52-18.64-19.54s-18.64,8.43-18.64,19.54v4.53h5.06Z"/><path class="cls-11" d="M333.37,32.36h0Z"/><path class="cls-12" d="M333.37,32.36h0Z"/><path class="cls-11" d="M333.4,38.11h0c4.88,0,8.84,4.28,8.84,9.55v3.63H347V47c0-8.1-6.08-14.66-13.58-14.68S319.82,38.94,319.82,47v4.25h4.74V47.66C324.56,42.39,328.52,38.12,333.4,38.11Z"/><path class="cls-12" d="M333.4,38.11h0c4.88,0,8.84,4.28,8.84,9.55v3.63H347V47c0-8.1-6.08-14.66-13.58-14.68S319.82,38.94,319.82,47v4.25h4.74V47.66C324.56,42.39,328.52,38.12,333.4,38.11Z"/><polygon class="cls-11" points="319.81 51.29 319.82 47.04 319.81 51.29 319.81 51.29"/><polygon class="cls-12" points="319.81 51.29 319.82 47.04 319.81 51.29 319.81 51.29"/><path class="cls-11" d="M333.38,38.11h0Z"/><path class="cls-12" d="M333.38,38.11h0Z"/><path class="cls-11" d="M329.38,48.08a4.19,4.19,0,0,1,4-4.34h0a4.19,4.19,0,0,1,4,4.34v3.21h4.82V47.66c0-5.27-4-9.54-8.84-9.55s-8.84,4.28-8.84,9.55v3.63h4.82Z"/><path class="cls-12" d="M329.38,48.08a4.19,4.19,0,0,1,4-4.34h0a4.19,4.19,0,0,1,4,4.34v3.21h4.82V47.66c0-5.27-4-9.54-8.84-9.55s-8.84,4.28-8.84,9.55v3.63h4.82Z"/><polygon class="cls-11" points="333.39 43.74 333.4 43.74 333.41 43.74 333.39 43.74"/><polygon class="cls-12" points="333.39 43.74 333.4 43.74 333.41 43.74 333.39 43.74"/><path class="cls-11" d="M333.4,43.74a4.19,4.19,0,0,0-4,4.34v3.21h8.06V48.08A4.19,4.19,0,0,0,333.4,43.74Z"/><path class="cls-12" d="M333.4,43.74a4.19,4.19,0,0,0-4,4.34v3.21h8.06V48.08A4.19,4.19,0,0,0,333.4,43.74Z"/><rect class="cls-9" x="259.54" y="65.48" width="23.37" height="15.11" transform="translate(344.26 -198.19) rotate(90)"/><rect class="cls-9" x="58.38" y="324.9" width="14.24" height="15.11" transform="translate(397.96 266.96) rotate(90)"/><polygon class="cls-13" points="255.55 252.39 255.55 252.39 255.56 248.96 255.55 252.39"/><path class="cls-2" d="M283.05,252.39v-4.33c0-11.11-8.34-19.52-18.64-19.54s-18.64,8.43-18.64,19.54v4.33"/><path class="cls-4" d="M283.05,252.39v-4.33c0-11.11-8.34-19.52-18.64-19.54s-18.64,8.43-18.64,19.54v4.33"/><path class="cls-2" d="M250.81,252.39v-4c0-8.1,6.08-14.66,13.58-14.68h0c7.5,0,13.58,6.58,13.58,14.68v4"/><path class="cls-4" d="M250.81,252.39v-4c0-8.1,6.08-14.66,13.58-14.68h0c7.5,0,13.58,6.58,13.58,14.68v4"/><path class="cls-2" d="M264.37,233.66h0Z"/><path class="cls-4" d="M264.37,233.66h0Z"/><path class="cls-2" d="M278,252.39v-4c0-8.1-6.08-14.66-13.58-14.68s-13.58,6.58-13.58,14.68v4"/><path class="cls-4" d="M278,252.39v-4c0-8.1-6.08-14.66-13.58-14.68s-13.58,6.58-13.58,14.68v4"/><path class="cls-2" d="M255.55,252.39V249c0-5.27,4-9.54,8.84-9.55h0c4.88,0,8.84,4.28,8.84,9.55v3.43"/><path class="cls-4" d="M255.55,252.39V249c0-5.27,4-9.54,8.84-9.55h0c4.88,0,8.84,4.28,8.84,9.55v3.43"/><polygon class="cls-2" points="250.81 252.39 250.82 248.34 250.81 252.39 250.81 252.39"/><polygon class="cls-4" points="250.81 252.39 250.82 248.34 250.81 252.39 250.81 252.39"/><path class="cls-2" d="M264.38,239.41h0Z"/><path class="cls-4" d="M264.38,239.41h0Z"/><path class="cls-2" d="M273.25,252.39V249c0-5.27-4-9.54-8.84-9.55s-8.84,4.28-8.84,9.55v3.43"/><path class="cls-4" d="M273.25,252.39V249c0-5.27-4-9.54-8.84-9.55s-8.84,4.28-8.84,9.55v3.43"/><path class="cls-2" d="M260.37,252.39v-3a4.19,4.19,0,0,1,4-4.34h0a4.19,4.19,0,0,1,4,4.34v3"/><path class="cls-4" d="M260.37,252.39v-3a4.19,4.19,0,0,1,4-4.34h0a4.19,4.19,0,0,1,4,4.34v3"/><polygon class="cls-2" points="264.39 245.04 264.4 245.04 264.41 245.04 264.39 245.04"/><polygon class="cls-4" points="264.39 245.04 264.4 245.04 264.41 245.04 264.39 245.04"/><path class="cls-2" d="M268.43,252.39v-3a4,4,0,1,0-8,0v3"/><path class="cls-4" d="M268.43,252.39v-3a4,4,0,1,0-8,0v3"/><polygon class="cls-14" points="380.91 106.01 380.91 106.01 380.92 102.58 380.91 106.01"/><path class="cls-2" d="M376.18,102c0-8.1,6.07-14.66,13.57-14.68h0c7.5,0,13.58,6.58,13.58,14.68V106h5.06v-4.33c0-11.11-8.34-19.51-18.64-19.54s-18.63,8.43-18.63,19.54l0,4.33h5.06Z"/><path class="cls-3" d="M376.18,102c0-8.1,6.07-14.66,13.57-14.68h0c7.5,0,13.58,6.58,13.58,14.68V106h5.06v-4.33c0-11.11-8.34-19.51-18.64-19.54s-18.63,8.43-18.63,19.54l0,4.33h5.06Z"/><path class="cls-2" d="M389.72,87.28h0Z"/><path class="cls-3" d="M389.72,87.28h0Z"/><path class="cls-2" d="M389.75,93h0c4.89,0,8.84,4.29,8.84,9.56V106h4.74V102c0-8.1-6.08-14.66-13.58-14.68S376.18,93.86,376.18,102l0,4.05h4.75v-3.42C380.92,97.32,384.87,93,389.75,93Z"/><path class="cls-3" d="M389.75,93h0c4.89,0,8.84,4.29,8.84,9.56V106h4.74V102c0-8.1-6.08-14.66-13.58-14.68S376.18,93.86,376.18,102l0,4.05h4.75v-3.42C380.92,97.32,384.87,93,389.75,93Z"/><polygon class="cls-2" points="376.16 106.01 376.18 101.96 376.16 106.01 376.16 106.01"/><polygon class="cls-3" points="376.16 106.01 376.18 101.96 376.16 106.01 376.16 106.01"/><path class="cls-2" d="M389.73,93h0Z"/><path class="cls-3" d="M389.73,93h0Z"/><path class="cls-2" d="M385.74,103a4.19,4.19,0,0,1,4-4.34h0a4.19,4.19,0,0,1,4,4.34v3h4.82v-3.42c0-5.27-3.95-9.55-8.84-9.56s-8.83,4.29-8.83,9.56V106h4.82Z"/><path class="cls-3" d="M385.74,103a4.19,4.19,0,0,1,4-4.34h0a4.19,4.19,0,0,1,4,4.34v3h4.82v-3.42c0-5.27-3.95-9.55-8.84-9.56s-8.83,4.29-8.83,9.56V106h4.82Z"/><polygon class="cls-2" points="389.75 98.66 389.75 98.66 389.76 98.66 389.75 98.66"/><polygon class="cls-3" points="389.75 98.66 389.75 98.66 389.76 98.66 389.75 98.66"/><path class="cls-2" d="M389.75,98.66a4.19,4.19,0,0,0-4,4.34v3h8v-3A4.19,4.19,0,0,0,389.75,98.66Z"/><path class="cls-3" d="M389.75,98.66a4.19,4.19,0,0,0-4,4.34v3h8v-3A4.19,4.19,0,0,0,389.75,98.66Z"/><line class="cls-13" x1="435.03" y1="201.6" x2="435.03" y2="252.35"/><line class="cls-13" x1="429.33" y1="201.6" x2="429.33" y2="252.35"/><line class="cls-13" x1="423.62" y1="201.6" x2="423.62" y2="252.35"/><line class="cls-13" x1="417.91" y1="201.6" x2="417.91" y2="252.35"/><line class="cls-13" x1="412.21" y1="201.6" x2="412.21" y2="252.35"/><line class="cls-13" x1="406.5" y1="201.6" x2="406.5" y2="252.35"/><line class="cls-13" x1="400.79" y1="201.6" x2="400.79" y2="252.35"/><line class="cls-13" x1="395.33" y1="201.6" x2="395.33" y2="252.35"/><line class="cls-13" x1="389.63" y1="201.6" x2="389.63" y2="252.35"/><line class="cls-13" x1="383.92" y1="201.6" x2="383.92" y2="252.35"/><line class="cls-13" x1="378.21" y1="201.6" x2="378.21" y2="252.35"/><line class="cls-13" x1="372.5" y1="201.6" x2="372.5" y2="252.35"/><polygon class="cls-10" points="324.55 179.89 324.55 179.89 324.56 168.46 324.55 179.89"/><path class="cls-11" d="M319.82,167.84c0-8.1,6.08-14.66,13.58-14.68h0c7.5,0,13.58,6.58,13.58,14.68v12h5.06V167.56C352,156.45,343.7,148,333.4,148s-18.64,8.43-18.64,19.54v12.33h5.06Z"/><path class="cls-12" d="M319.82,167.84c0-8.1,6.08-14.66,13.58-14.68h0c7.5,0,13.58,6.58,13.58,14.68v12h5.06V167.56C352,156.45,343.7,148,333.4,148s-18.64,8.43-18.64,19.54v12.33h5.06Z"/><path class="cls-11" d="M333.37,153.16h0Z"/><path class="cls-12" d="M333.37,153.16h0Z"/><path class="cls-11" d="M333.4,158.91h0c4.88,0,8.84,4.28,8.84,9.55v11.43H347v-12c0-8.1-6.08-14.66-13.58-14.68s-13.58,6.58-13.58,14.68v12h4.74V168.46C324.56,163.19,328.52,158.92,333.4,158.91Z"/><path class="cls-12" d="M333.4,158.91h0c4.88,0,8.84,4.28,8.84,9.55v11.43H347v-12c0-8.1-6.08-14.66-13.58-14.68s-13.58,6.58-13.58,14.68v12h4.74V168.46C324.56,163.19,328.52,158.92,333.4,158.91Z"/><polygon class="cls-11" points="319.81 179.89 319.82 167.84 319.81 179.89 319.81 179.89"/><polygon class="cls-12" points="319.81 179.89 319.82 167.84 319.81 179.89 319.81 179.89"/><path class="cls-11" d="M333.38,158.91h0Z"/><path class="cls-12" d="M333.38,158.91h0Z"/><path class="cls-11" d="M329.38,168.88a4.19,4.19,0,0,1,4-4.34h0a4.19,4.19,0,0,1,4,4.34v11h4.82V168.46c0-5.27-4-9.54-8.84-9.55s-8.84,4.28-8.84,9.55v11.43h4.82Z"/><path class="cls-12" d="M329.38,168.88a4.19,4.19,0,0,1,4-4.34h0a4.19,4.19,0,0,1,4,4.34v11h4.82V168.46c0-5.27-4-9.54-8.84-9.55s-8.84,4.28-8.84,9.55v11.43h4.82Z"/><polygon class="cls-11" points="333.39 164.54 333.4 164.54 333.41 164.54 333.39 164.54"/><polygon class="cls-12" points="333.39 164.54 333.4 164.54 333.41 164.54 333.39 164.54"/><path class="cls-11" d="M333.4,164.54a4.19,4.19,0,0,0-4,4.34v11h8.06v-11A4.19,4.19,0,0,0,333.4,164.54Z"/><path class="cls-12" d="M333.4,164.54a4.19,4.19,0,0,0-4,4.34v11h8.06v-11A4.19,4.19,0,0,0,333.4,164.54Z"/><polygon class="cls-13" points="361.89 179.89 361.89 179.89 361.91 149.79 361.89 179.89"/><path class="cls-2" d="M357.15,179.89l0-30.72c0-8.1,6.07-14.66,13.57-14.68h0c7.5,0,13.58,6.58,13.58,14.68v30.72h5.06v-31c0-11.11-8.34-19.52-18.64-19.54s-18.63,8.43-18.63,19.54l0,31"/><path class="cls-4" d="M357.15,179.89l0-30.72c0-8.1,6.07-14.66,13.57-14.68h0c7.5,0,13.58,6.58,13.58,14.68v30.72h5.06v-31c0-11.11-8.34-19.52-18.64-19.54s-18.63,8.43-18.63,19.54l0,31"/><path class="cls-2" d="M370.71,134.49h0Z"/><path class="cls-4" d="M370.71,134.49h0Z"/><path class="cls-2" d="M361.9,179.89v-30.1c0-5.27,3.95-9.54,8.83-9.55h0c4.88,0,8.84,4.28,8.84,9.55v30.1h4.74V149.17c0-8.1-6.08-14.66-13.58-14.68s-13.57,6.58-13.57,14.68l0,30.72"/><path class="cls-4" d="M361.9,179.89v-30.1c0-5.27,3.95-9.54,8.83-9.55h0c4.88,0,8.84,4.28,8.84,9.55v30.1h4.74V149.17c0-8.1-6.08-14.66-13.58-14.68s-13.57,6.58-13.57,14.68l0,30.72"/><polyline class="cls-2" points="357.15 179.89 357.15 179.89 357.17 149.17 357.15 179.89"/><polyline class="cls-4" points="357.15 179.89 357.15 179.89 357.17 149.17 357.15 179.89"/><path class="cls-2" d="M370.72,140.24h0Z"/><path class="cls-4" d="M370.72,140.24h0Z"/><path class="cls-2" d="M366.72,179.89V150.21a4.18,4.18,0,0,1,4-4.34h0a4.19,4.19,0,0,1,4,4.34v29.68h4.82v-30.1c0-5.27-4-9.54-8.84-9.55s-8.83,4.28-8.83,9.55v30.1"/><path class="cls-4" d="M366.72,179.89V150.21a4.18,4.18,0,0,1,4-4.34h0a4.19,4.19,0,0,1,4,4.34v29.68h4.82v-30.1c0-5.27-4-9.54-8.84-9.55s-8.83,4.28-8.83,9.55v30.1"/><polygon class="cls-2" points="370.73 145.87 370.74 145.87 370.75 145.87 370.73 145.87"/><polygon class="cls-4" points="370.73 145.87 370.74 145.87 370.75 145.87 370.73 145.87"/><path class="cls-2" d="M374.77,179.89V150.21a4,4,0,1,0-8,0v29.68"/><path class="cls-4" d="M374.77,179.89V150.21a4,4,0,1,0-8,0v29.68"/><rect class="cls-13" x="404.83" y="180.33" width="30.2" height="21.52"/><rect class="cls-13" x="410.87" y="187.13" width="3.68" height="7.17"/><rect class="cls-13" x="418.8" y="187.13" width="3.68" height="7.17"/><rect class="cls-13" x="426.73" y="187.13" width="3.68" height="7.17"/><polygon class="cls-15" points="388.6 158.81 372.25 180.33 372.37 180.33 372.37 201.85 404.83 201.85 404.83 180.33 404.95 180.33 388.6 158.81"/><rect class="cls-13" x="384.83" y="187.13" width="7.55" height="14.72"/><polygon class="cls-13" points="404.92 180.31 388.63 158.75 418.83 158.83 435.12 180.39 404.92 180.31"/><path class="cls-11" d="M390.41,180.28v-3.9a1.94,1.94,0,1,0-3.88,0v3.9Z"/><path class="cls-16" d="M390.41,180.28v-3.9a1.94,1.94,0,1,0-3.88,0v3.9Z"/><line class="cls-4" x1="400.36" y1="174.18" x2="430.14" y2="174.18"/><path class="cls-11" d="M334.14,314.87a9.5,9.5,0,0,0,8.34-5.63c1.66-3.82.4-8.37-1.42-11.65a15.8,15.8,0,0,1-2.35-8.53c0-5-4.93-4.84-4.93-4.84h-.68s-4.93.17-4.93,4.84a15.8,15.8,0,0,1-2.35,8.53c-1.82,3.28-3.08,7.83-1.42,11.65a9.5,9.5,0,0,0,8.34,5.63Z"/><polyline class="cls-4" points="338.12 304.68 333.43 307.68 328.75 304.68"/><polyline class="cls-4" points="336.97 300.18 333.43 302.44 329.89 300.18"/><polyline class="cls-4" points="336.26 295.68 333.43 297.49 330.61 295.68"/><line class="cls-4" x1="333.51" y1="289.91" x2="333.51" y2="324.08"/><path class="cls-11" d="M284,162.57a9.47,9.47,0,0,0,8.33-5.63c1.66-3.81.41-8.37-1.41-11.65a15.78,15.78,0,0,1-2.36-8.53c0-5-4.93-4.84-4.93-4.84h-.67s-4.94.17-4.94,4.84a15.78,15.78,0,0,1-2.35,8.53c-1.82,3.28-3.07,7.84-1.42,11.65a9.5,9.5,0,0,0,8.34,5.63Z"/><polyline class="cls-4" points="287.94 152.38 283.25 155.38 278.56 152.38"/><polyline class="cls-4" points="286.79 147.88 283.25 150.15 279.71 147.88"/><polyline class="cls-4" points="286.07 143.38 283.25 145.19 280.42 143.38"/><line class="cls-4" x1="283.32" y1="137.61" x2="283.32" y2="171.78"/><circle class="cls-15" cx="390.76" cy="313.23" r="5.99"/><line class="cls-13" x1="411" y1="313.47" x2="396.75" y2="313.47"/><circle class="cls-13" cx="390.76" cy="313.23" r="2.64"/><polyline class="cls-13" points="402.18 313.47 410.18 286.14 423.12 286.14 423.12 302.44"/><path class="cls-13" d="M407.28,296,395,298.14a8.39,8.39,0,0,0-6.84,9.71h0"/><polyline class="cls-13" points="423.12 299.69 408.26 299.69 408.26 313.47"/><rect class="cls-13" x="407.3" y="282.31" width="15.82" height="3.83"/><circle class="cls-15" cx="419.04" cy="310.35" r="8.63"/><circle class="cls-13" cx="419.04" cy="310.35" r="4.07"/><polyline class="cls-13" points="394.38 298.27 394.38 293.81 391.58 293.81"/><path class="cls-5" d="M159,75.71a14.83,14.83,0,0,0,13-8.79c2.58-6,.63-13.06-2.21-18.18-2.44-4.39-3.68-7.85-3.68-13.3,0-7.82-7.69-7.56-7.69-7.56h-1.06s-7.69.26-7.69,7.56c0,5.45-1.24,8.91-3.67,13.3-2.85,5.12-4.8,12.23-2.22,18.18a14.83,14.83,0,0,0,13,8.79Z"/><polyline class="cls-4" points="165.25 59.81 157.93 64.49 150.61 59.81"/><polyline class="cls-4" points="163.46 52.79 157.93 56.32 152.41 52.79"/><polyline class="cls-4" points="162.34 45.76 157.93 48.59 153.52 45.76"/><line class="cls-4" x1="158.05" y1="36.77" x2="158.05" y2="90.08"/><path class="cls-11" d="M98.14,247.87a9.5,9.5,0,0,0,8.34-5.63c1.66-3.82.4-8.37-1.42-11.65a15.8,15.8,0,0,1-2.35-8.53c0-5-4.93-4.84-4.93-4.84H97.1s-4.93.17-4.93,4.84a15.8,15.8,0,0,1-2.35,8.53c-1.82,3.28-3.08,7.83-1.42,11.65a9.5,9.5,0,0,0,8.34,5.63Z"/><polyline class="cls-4" points="102.12 237.68 97.43 240.68 92.75 237.68"/><polyline class="cls-4" points="100.97 233.18 97.43 235.44 93.89 233.18"/><polyline class="cls-4" points="100.26 228.68 97.43 230.49 94.61 228.68"/><line class="cls-4" x1="97.51" y1="222.91" x2="97.51" y2="257.08"/><path class="cls-11" d="M364.14,41.87a9.5,9.5,0,0,0,8.34-5.63c1.66-3.82.4-8.37-1.42-11.65a15.8,15.8,0,0,1-2.35-8.53c0-5-4.93-4.84-4.93-4.84h-.68s-4.93.17-4.93,4.84a15.8,15.8,0,0,1-2.35,8.53c-1.82,3.28-3.08,7.83-1.42,11.65a9.5,9.5,0,0,0,8.34,5.63Z"/><polyline class="cls-4" points="368.12 31.68 363.43 34.68 358.75 31.68"/><polyline class="cls-4" points="366.97 27.18 363.43 29.45 359.89 27.18"/><polyline class="cls-4" points="366.26 22.68 363.43 24.49 360.61 22.68"/><line class="cls-4" x1="363.51" y1="16.91" x2="363.51" y2="51.08"/><path class="cls-2" d="M19.74,219.87a9.5,9.5,0,0,0,8.34-5.63c1.66-3.82.4-8.37-1.42-11.65a15.8,15.8,0,0,1-2.35-8.53c0-5-4.93-4.84-4.93-4.84H18.7s-4.93.17-4.93,4.84a15.8,15.8,0,0,1-2.35,8.53c-1.82,3.28-3.08,7.83-1.42,11.65a9.5,9.5,0,0,0,8.34,5.63Z"/><polyline class="cls-4" points="23.72 209.68 19.03 212.68 14.35 209.68"/><polyline class="cls-4" points="22.57 205.18 19.03 207.44 15.49 205.18"/><polyline class="cls-4" points="21.86 200.68 19.03 202.49 16.21 200.68"/><line class="cls-4" x1="19.11" y1="194.91" x2="19.11" y2="229.08"/><path class="cls-5" d="M450.14,306.67a9.5,9.5,0,0,0,8.34-5.63c1.66-3.82.4-8.37-1.42-11.65a15.8,15.8,0,0,1-2.35-8.53c0-5-4.93-4.84-4.93-4.84h-.68s-4.93.17-4.93,4.84a15.8,15.8,0,0,1-2.35,8.53c-1.82,3.28-3.08,7.83-1.42,11.65a9.5,9.5,0,0,0,8.34,5.63Z"/><polyline class="cls-4" points="454.12 296.48 449.43 299.48 444.75 296.48"/><polyline class="cls-4" points="452.97 291.98 449.43 294.25 445.89 291.98"/><polyline class="cls-4" points="452.26 287.48 449.43 289.29 446.61 287.48"/><line class="cls-4" x1="449.51" y1="281.71" x2="449.51" y2="315.88"/><rect class="cls-10" x="118.49" y="181.99" width="37.88" height="60.15"/><path class="cls-11" d="M133.69,200.52v-6.81a3.39,3.39,0,1,0-6.78,0v6.81Z"/><path class="cls-16" d="M133.69,200.52v-6.81a3.39,3.39,0,1,0-6.78,0v6.81Z"/><line class="cls-17" x1="133.72" y1="196.98" x2="126.92" y2="196.98"/><line class="cls-17" x1="126.92" y1="195.34" x2="133.72" y2="195.34"/><line class="cls-17" x1="130.32" y1="196.98" x2="130.32" y2="200.49"/><path class="cls-11" d="M147.8,200.52v-6.81a3.39,3.39,0,1,0-6.78,0v6.81Z"/><path class="cls-16" d="M147.8,200.52v-6.81a3.39,3.39,0,1,0-6.78,0v6.81Z"/><line class="cls-17" x1="147.83" y1="196.98" x2="141.03" y2="196.98"/><line class="cls-17" x1="141.03" y1="195.34" x2="147.83" y2="195.34"/><line class="cls-17" x1="144.43" y1="196.98" x2="144.43" y2="200.49"/><path class="cls-11" d="M133.69,216.86v-6.81a3.39,3.39,0,1,0-6.78,0v6.81Z"/><path class="cls-16" d="M133.69,216.86v-6.81a3.39,3.39,0,1,0-6.78,0v6.81Z"/><line class="cls-17" x1="133.72" y1="213.31" x2="126.92" y2="213.31"/><line class="cls-17" x1="126.92" y1="211.67" x2="133.72" y2="211.67"/><line class="cls-17" x1="130.32" y1="213.31" x2="130.32" y2="216.83"/><path class="cls-11" d="M147.8,216.86v-6.81a3.39,3.39,0,1,0-6.78,0v6.81Z"/><path class="cls-16" d="M147.8,216.86v-6.81a3.39,3.39,0,1,0-6.78,0v6.81Z"/><line class="cls-17" x1="147.83" y1="213.31" x2="141.03" y2="213.31"/><line class="cls-17" x1="141.03" y1="211.67" x2="147.83" y2="211.67"/><line class="cls-17" x1="144.43" y1="213.31" x2="144.43" y2="216.83"/><path class="cls-11" d="M133.69,233.2v-6.81a3.39,3.39,0,1,0-6.78,0v6.81Z"/><path class="cls-16" d="M133.69,233.2v-6.81a3.39,3.39,0,1,0-6.78,0v6.81Z"/><line class="cls-17" x1="133.72" y1="229.65" x2="126.92" y2="229.65"/><line class="cls-17" x1="126.92" y1="228.01" x2="133.72" y2="228.01"/><line class="cls-17" x1="130.32" y1="229.65" x2="130.32" y2="233.17"/><path class="cls-11" d="M147.8,233.2v-6.81a3.39,3.39,0,1,0-6.78,0v6.81Z"/><path class="cls-16" d="M147.8,233.2v-6.81a3.39,3.39,0,1,0-6.78,0v6.81Z"/><line class="cls-17" x1="147.83" y1="229.65" x2="141.03" y2="229.65"/><line class="cls-17" x1="141.03" y1="228.01" x2="147.83" y2="228.01"/><line class="cls-17" x1="144.43" y1="229.65" x2="144.43" y2="233.17"/><polyline class="cls-10" points="156.75 196.85 187.75 196.85 187.75 244.35 156.75 244.35"/><line class="cls-15" x1="156.75" y1="243.38" x2="156.75" y2="181.85"/><rect class="cls-4" x="118.49" y="174.9" width="37.88" height="6.81"/><line class="cls-4" x1="121.2" y1="174.9" x2="121.2" y2="181.71"/><line class="cls-4" x1="123.9" y1="174.9" x2="123.9" y2="181.71"/><line class="cls-4" x1="126.61" y1="174.9" x2="126.61" y2="181.71"/><line class="cls-4" x1="129.31" y1="174.9" x2="129.31" y2="181.71"/><line class="cls-4" x1="132.02" y1="174.9" x2="132.02" y2="181.71"/><line class="cls-4" x1="134.73" y1="174.9" x2="134.73" y2="181.71"/><line class="cls-4" x1="137.43" y1="174.9" x2="137.43" y2="181.71"/><line class="cls-4" x1="140.14" y1="174.9" x2="140.14" y2="181.71"/><line class="cls-4" x1="142.84" y1="174.9" x2="142.84" y2="181.71"/><line class="cls-4" x1="145.55" y1="174.9" x2="145.55" y2="181.71"/><line class="cls-4" x1="148.25" y1="174.9" x2="148.25" y2="181.71"/><line class="cls-4" x1="150.96" y1="174.9" x2="150.96" y2="181.71"/><line class="cls-4" x1="153.66" y1="174.9" x2="153.66" y2="181.71"/><rect class="cls-4" x="116.79" y="172.35" width="40.85" height="2.55"/><rect class="cls-13" x="116.79" y="242.14" width="71.96" height="2.55"/><path class="cls-15" d="M164.52,200.54h0a1.73,1.73,0,0,1,1.73,1.73v4.27a0,0,0,0,1,0,0h-3.46a0,0,0,0,1,0,0v-4.27A1.73,1.73,0,0,1,164.52,200.54Z"/><line class="cls-15" x1="162.9" y1="203.77" x2="166.19" y2="203.77"/><path class="cls-15" d="M172.52,200.54h0a1.73,1.73,0,0,1,1.73,1.73v4.27a0,0,0,0,1,0,0h-3.46a0,0,0,0,1,0,0v-4.27a1.73,1.73,0,0,1,1.73-1.73Z"/><line class="cls-15" x1="170.9" y1="203.77" x2="174.19" y2="203.77"/><path class="cls-15" d="M180.52,200.54h0a1.73,1.73,0,0,1,1.73,1.73v4.27a0,0,0,0,1,0,0h-3.46a0,0,0,0,1,0,0v-4.27A1.73,1.73,0,0,1,180.52,200.54Z"/><line class="cls-15" x1="178.9" y1="203.77" x2="182.19" y2="203.77"/><path class="cls-15" d="M164.52,211.54h0a1.73,1.73,0,0,1,1.73,1.73v4.27a0,0,0,0,1,0,0h-3.46a0,0,0,0,1,0,0v-4.27A1.73,1.73,0,0,1,164.52,211.54Z"/><line class="cls-15" x1="162.9" y1="214.77" x2="166.19" y2="214.77"/><path class="cls-15" d="M172.52,211.54h0a1.73,1.73,0,0,1,1.73,1.73v4.27a0,0,0,0,1,0,0h-3.46a0,0,0,0,1,0,0v-4.27a1.73,1.73,0,0,1,1.73-1.73Z"/><line class="cls-15" x1="170.9" y1="214.77" x2="174.19" y2="214.77"/><path class="cls-15" d="M180.52,211.54h0a1.73,1.73,0,0,1,1.73,1.73v4.27a0,0,0,0,1,0,0h-3.46a0,0,0,0,1,0,0v-4.27a1.73,1.73,0,0,1,1.73-1.73Z"/><line class="cls-15" x1="178.9" y1="214.77" x2="182.19" y2="214.77"/><path class="cls-15" d="M164.52,222.54h0a1.73,1.73,0,0,1,1.73,1.73v4.27a0,0,0,0,1,0,0h-3.46a0,0,0,0,1,0,0v-4.27A1.73,1.73,0,0,1,164.52,222.54Z"/><line class="cls-15" x1="162.9" y1="225.77" x2="166.19" y2="225.77"/><path class="cls-15" d="M172.52,222.54h0a1.73,1.73,0,0,1,1.73,1.73v4.27a0,0,0,0,1,0,0h-3.46a0,0,0,0,1,0,0v-4.27A1.73,1.73,0,0,1,172.52,222.54Z"/><line class="cls-15" x1="170.9" y1="225.77" x2="174.19" y2="225.77"/><path class="cls-15" d="M180.52,222.54h0a1.73,1.73,0,0,1,1.73,1.73v4.27a0,0,0,0,1,0,0h-3.46a0,0,0,0,1,0,0v-4.27A1.73,1.73,0,0,1,180.52,222.54Z"/><line class="cls-15" x1="178.9" y1="225.77" x2="182.19" y2="225.77"/><path class="cls-15" d="M164.52,233.54h0a1.73,1.73,0,0,1,1.73,1.73v4.27a0,0,0,0,1,0,0h-3.46a0,0,0,0,1,0,0v-4.27A1.73,1.73,0,0,1,164.52,233.54Z"/><line class="cls-15" x1="162.9" y1="236.77" x2="166.19" y2="236.77"/><path class="cls-15" d="M172.52,233.54h0a1.73,1.73,0,0,1,1.73,1.73v4.27a0,0,0,0,1,0,0h-3.46a0,0,0,0,1,0,0v-4.27a1.73,1.73,0,0,1,1.73-1.73Z"/><line class="cls-15" x1="170.9" y1="236.77" x2="174.19" y2="236.77"/><path class="cls-15" d="M180.52,233.54h0a1.73,1.73,0,0,1,1.73,1.73v4.27a0,0,0,0,1,0,0h-3.46a0,0,0,0,1,0,0v-4.27a1.73,1.73,0,0,1,1.73-1.73Z"/><line class="cls-15" x1="178.9" y1="236.77" x2="182.19" y2="236.77"/><rect class="cls-13" x="156.75" y="193.85" width="32" height="3"/><rect class="cls-10" x="231.07" y="151.85" width="28.64" height="63.75"/><rect class="cls-15" x="236.24" y="192.29" width="5.16" height="8.66"/><line class="cls-15" x1="236.41" y1="196.95" x2="241.36" y2="196.95"/><line class="cls-15" x1="238.73" y1="192.29" x2="238.73" y2="196.95"/><rect class="cls-15" x="248.89" y="192.29" width="5.16" height="8.66"/><line class="cls-15" x1="249.06" y1="196.95" x2="253.98" y2="196.95"/><line class="cls-15" x1="251.38" y1="192.29" x2="251.38" y2="196.95"/><rect class="cls-15" x="236.24" y="169.29" width="5.16" height="8.66"/><line class="cls-15" x1="236.41" y1="173.95" x2="241.36" y2="173.95"/><line class="cls-15" x1="238.73" y1="169.29" x2="238.73" y2="173.95"/><rect class="cls-15" x="248.89" y="169.29" width="5.16" height="8.66"/><line class="cls-15" x1="249.06" y1="173.95" x2="253.98" y2="173.95"/><line class="cls-15" x1="251.38" y1="169.29" x2="251.38" y2="173.95"/><rect class="cls-15" x="236.24" y="156.29" width="5.16" height="8.66"/><line class="cls-15" x1="236.41" y1="160.95" x2="241.36" y2="160.95"/><line class="cls-15" x1="238.73" y1="156.29" x2="238.73" y2="160.95"/><rect class="cls-15" x="248.89" y="156.29" width="5.16" height="8.66"/><line class="cls-15" x1="249.06" y1="160.95" x2="253.98" y2="160.95"/><line class="cls-15" x1="251.38" y1="156.29" x2="251.38" y2="160.95"/><rect class="cls-15" x="242.62" y="205.8" width="5.16" height="9.8"/><rect class="cls-13" x="229.35" y="181.85" width="31.5" height="3"/><rect class="cls-13" x="229.35" y="148.85" width="31.5" height="3"/><rect class="cls-13" x="229.35" y="214.85" width="31.5" height="3"/><rect class="cls-9" x="101.21" y="137.85" width="103.53" height="26.99"/><rect class="cls-9" x="231.33" y="353.5" width="145.03" height="15.11"/><rect class="cls-9" x="101.18" y="353.5" width="145.03" height="15.11"/><polygon class="cls-13" points="378.39 233.7 372.75 228.49 372.75 224.57 378.39 229.79 378.39 233.7"/><polygon class="cls-13" points="378.39 237.62 372.75 232.4 372.75 228.49 378.39 233.7 378.39 237.62"/><polygon class="cls-13" points="378.39 241.53 372.75 236.31 372.75 232.4 378.39 237.62 378.39 241.53"/><polygon class="cls-13" points="378.39 245.44 372.75 240.22 372.75 236.31 378.39 241.53 378.39 245.44"/><polygon class="cls-13" points="378.39 249.35 372.75 244.13 372.75 240.22 378.39 245.44 378.39 249.35"/><polygon class="cls-13" points="378.39 233.7 384.02 228.49 384.02 224.57 378.39 229.79 378.39 233.7"/><polygon class="cls-13" points="378.39 237.62 384.02 232.4 384.02 228.49 378.39 233.7 378.39 237.62"/><polygon class="cls-13" points="378.39 241.53 384.02 236.31 384.02 232.4 378.39 237.62 378.39 241.53"/><polygon class="cls-13" points="378.39 245.44 384.02 240.22 384.02 236.31 378.39 241.53 378.39 245.44"/><polygon class="cls-13" points="378.39 249.35 384.02 244.13 384.02 240.22 378.39 245.44 378.39 249.35"/><polygon class="cls-13" points="412.28 233.7 406.65 228.49 406.65 224.57 412.28 229.79 412.28 233.7"/><polygon class="cls-13" points="412.28 237.62 406.65 232.4 406.65 228.49 412.28 233.7 412.28 237.62"/><polygon class="cls-13" points="412.28 241.53 406.65 236.31 406.65 232.4 412.28 237.62 412.28 241.53"/><polygon class="cls-13" points="412.28 245.44 406.65 240.22 406.65 236.31 412.28 241.53 412.28 245.44"/><polygon class="cls-13" points="412.28 249.35 406.65 244.13 406.65 240.22 412.28 245.44 412.28 249.35"/><polygon class="cls-13" points="412.28 233.7 417.91 228.49 417.91 224.57 412.28 229.79 412.28 233.7"/><polygon class="cls-13" points="412.28 237.62 417.91 232.4 417.91 228.49 412.28 233.7 412.28 237.62"/><polygon class="cls-13" points="412.28 241.53 417.91 236.31 417.91 232.4 412.28 237.62 412.28 241.53"/><polygon class="cls-13" points="412.28 245.44 417.91 240.22 417.91 236.31 412.28 241.53 412.28 245.44"/><polygon class="cls-13" points="412.28 249.35 417.91 244.13 417.91 240.22 412.28 245.44 412.28 249.35"/><polygon class="cls-13" points="395.33 217.7 389.7 212.49 389.7 208.57 395.33 213.79 395.33 217.7"/><polygon class="cls-13" points="395.33 221.62 389.7 216.4 389.7 212.49 395.33 217.7 395.33 221.62"/><polygon class="cls-13" points="395.33 225.53 389.7 220.31 389.7 216.4 395.33 221.62 395.33 225.53"/><polygon class="cls-13" points="395.33 229.44 389.7 224.22 389.7 220.31 395.33 225.53 395.33 229.44"/><polygon class="cls-13" points="395.33 233.35 389.7 228.13 389.7 224.22 395.33 229.44 395.33 233.35"/><polygon class="cls-13" points="395.33 217.7 400.97 212.49 400.97 208.57 395.33 213.79 395.33 217.7"/><polygon class="cls-13" points="395.33 221.62 400.97 216.4 400.97 212.49 395.33 217.7 395.33 221.62"/><polygon class="cls-13" points="395.33 225.53 400.97 220.31 400.97 216.4 395.33 221.62 395.33 225.53"/><polygon class="cls-13" points="395.33 229.44 400.97 224.22 400.97 220.31 395.33 225.53 395.33 229.44"/><polygon class="cls-13" points="395.33 233.35 400.97 228.13 400.97 224.22 395.33 229.44 395.33 233.35"/><line class="cls-13" x1="204.35" y1="155.14" x2="101.45" y2="155.14"/><line class="cls-13" x1="204.35" y1="149.39" x2="101.45" y2="149.39"/><line class="cls-13" x1="204.35" y1="164.64" x2="101.45" y2="164.64"/><line class="cls-13" x1="372.25" y1="220.14" x2="315.05" y2="220.14"/><line class="cls-13" x1="372.25" y1="214.39" x2="315.05" y2="214.39"/><polygon class="cls-5" points="292.89 347.89 292.89 347.89 292.91 317.79 292.89 347.89"/><path class="cls-5" d="M288.17,317.17c0-8.1,6.07-14.66,13.57-14.68h0c7.5,0,13.58,6.58,13.58,14.68v30.72h5.06v-31c0-11.11-8.34-19.52-18.64-19.54s-18.63,8.43-18.63,19.54l0,31h5.06Z"/><path class="cls-5" d="M301.71,302.49h0Z"/><path class="cls-5" d="M301.74,308.24h0c4.88,0,8.84,4.28,8.84,9.55v30.1h4.74V317.17c0-8.1-6.08-14.66-13.58-14.68s-13.57,6.58-13.57,14.68l0,30.72h4.75v-30.1C292.91,312.52,296.86,308.25,301.74,308.24Z"/><polygon class="cls-5" points="288.15 347.89 288.17 317.17 288.15 347.89 288.15 347.89"/><path class="cls-5" d="M301.72,308.24h0Z"/><path class="cls-5" d="M297.73,318.21a4.18,4.18,0,0,1,4-4.34h0a4.19,4.19,0,0,1,4,4.34v29.68h4.82v-30.1c0-5.27-4-9.54-8.84-9.55s-8.83,4.28-8.83,9.55v30.1h4.82Z"/><polygon class="cls-5" points="301.73 313.87 301.74 313.87 301.75 313.87 301.73 313.87"/><path class="cls-5" d="M301.74,313.87a4.18,4.18,0,0,0-4,4.34v29.68h8V318.21A4.19,4.19,0,0,0,301.74,313.87Z"/><polygon class="cls-15" points="255.55 347.89 255.55 347.89 255.56 336.46 255.55 347.89"/><path class="cls-11" d="M250.82,335.84c0-8.1,6.08-14.66,13.58-14.68h0c7.5,0,13.58,6.58,13.58,14.68v12.05h5.06V335.56C283,324.45,274.7,316,264.4,316s-18.64,8.43-18.64,19.54v12.33h5.06Z"/><path class="cls-12" d="M250.82,335.84c0-8.1,6.08-14.66,13.58-14.68h0c7.5,0,13.58,6.58,13.58,14.68v12.05h5.06V335.56C283,324.45,274.7,316,264.4,316s-18.64,8.43-18.64,19.54v12.33h5.06Z"/><path class="cls-11" d="M264.37,321.16h0Z"/><path class="cls-4" d="M264.37,321.16h0Z"/><path class="cls-11" d="M264.4,326.91h0c4.88,0,8.84,4.28,8.84,9.55v11.43H278V335.84c0-8.1-6.08-14.66-13.58-14.68s-13.58,6.58-13.58,14.68v12.05h4.74V336.46C255.56,331.19,259.52,326.92,264.4,326.91Z"/><path class="cls-4" d="M264.4,326.91h0c4.88,0,8.84,4.28,8.84,9.55v11.43H278V335.84c0-8.1-6.08-14.66-13.58-14.68s-13.58,6.58-13.58,14.68v12.05h4.74V336.46C255.56,331.19,259.52,326.92,264.4,326.91Z"/><polygon class="cls-11" points="250.81 347.89 250.82 335.84 250.81 347.89 250.81 347.89"/><polygon class="cls-4" points="250.81 347.89 250.82 335.84 250.81 347.89 250.81 347.89"/><path class="cls-11" d="M264.38,326.91h0Z"/><path class="cls-4" d="M264.38,326.91h0Z"/><path class="cls-11" d="M260.38,336.88a4.19,4.19,0,0,1,4-4.34h0a4.19,4.19,0,0,1,4,4.34v11h4.82V336.46c0-5.27-4-9.54-8.84-9.55s-8.84,4.28-8.84,9.55v11.43h4.82Z"/><path class="cls-4" d="M260.38,336.88a4.19,4.19,0,0,1,4-4.34h0a4.19,4.19,0,0,1,4,4.34v11h4.82V336.46c0-5.27-4-9.54-8.84-9.55s-8.84,4.28-8.84,9.55v11.43h4.82Z"/><polygon class="cls-11" points="264.39 332.54 264.4 332.54 264.41 332.54 264.39 332.54"/><polygon class="cls-4" points="264.39 332.54 264.4 332.54 264.41 332.54 264.39 332.54"/><path class="cls-11" d="M264.4,332.54a4.19,4.19,0,0,0-4,4.34v11h8.06v-11A4.19,4.19,0,0,0,264.4,332.54Z"/><path class="cls-4" d="M264.4,332.54a4.19,4.19,0,0,0-4,4.34v11h8.06v-11A4.19,4.19,0,0,0,264.4,332.54Z"/><polygon class="cls-5" points="324.55 347.89 324.55 347.89 324.56 344.46 324.55 347.89"/><path class="cls-5" d="M319.82,343.84c0-8.1,6.08-14.66,13.58-14.68h0c7.5,0,13.58,6.58,13.58,14.68v4.05h5.06v-4.33C352,332.45,343.7,324,333.4,324s-18.64,8.43-18.64,19.54v4.33h5.06Z"/><path class="cls-5" d="M333.37,329.16h0Z"/><path class="cls-5" d="M333.4,334.91h0c4.88,0,8.84,4.28,8.84,9.55v3.43H347v-4.05c0-8.1-6.08-14.66-13.58-14.68s-13.58,6.58-13.58,14.68v4.05h4.74v-3.43C324.56,339.19,328.52,334.92,333.4,334.91Z"/><polygon class="cls-5" points="319.81 347.89 319.82 343.84 319.81 347.89 319.81 347.89"/><path class="cls-5" d="M333.38,334.91h0Z"/><path class="cls-5" d="M329.38,344.88a4.19,4.19,0,0,1,4-4.34h0a4.19,4.19,0,0,1,4,4.34v3h4.82v-3.43c0-5.27-4-9.54-8.84-9.55s-8.84,4.28-8.84,9.55v3.43h4.82Z"/><polygon class="cls-5" points="333.39 340.54 333.4 340.54 333.41 340.54 333.39 340.54"/><path class="cls-5" d="M333.4,340.54a4.19,4.19,0,0,0-4,4.34v3h8.06v-3A4.19,4.19,0,0,0,333.4,340.54Z"/><path class="cls-11" d="M133.12,451.55a14.81,14.81,0,0,0,13-8.79c2.58-5.95.63-13.05-2.21-18.17-2.44-4.39-3.68-7.86-3.68-13.31,0-7.82-7.69-7.55-7.69-7.55h-1.06s-7.69.26-7.69,7.55c0,5.45-1.24,8.92-3.68,13.31-2.84,5.12-4.79,12.22-2.21,18.17a14.81,14.81,0,0,0,13,8.79Z"/><polyline class="cls-4" points="139.33 435.65 132.01 440.34 124.69 435.65"/><polyline class="cls-4" points="137.53 428.63 132.01 432.17 126.49 428.63"/><polyline class="cls-4" points="136.42 421.61 132.01 424.43 127.6 421.61"/><line class="cls-4" x1="132.13" y1="412.61" x2="132.13" y2="465.92"/><polygon class="cls-10" points="336.18 80.39 341.97 86.72 341.93 86.72 341.93 96.47 330.42 96.47 330.42 86.72 330.38 86.72 336.18 80.39"/><polyline class="cls-15" points="337.94 96.57 337.94 91.3 334.42 91.3 334.42 96.57"/><polygon class="cls-10" points="354.04 72.29 359.84 78.62 359.8 78.62 359.8 88.38 348.29 88.38 348.29 78.62 348.25 78.62 354.04 72.29"/><polyline class="cls-15" points="355.8 88.48 355.8 83.21 352.28 83.21 352.28 88.48"/><line class="cls-4" x1="330.38" y1="86.72" x2="341.93" y2="86.72"/><line class="cls-4" x1="348.27" y1="78.63" x2="359.82" y2="78.63"/><rect class="cls-18" x="51.18" y="254.58" width="28.64" height="5.89"/><polyline class="cls-10" points="79.82 255.36 82.6 255.36 65.5 221.4 48.4 255.36 51.18 255.36"/><polygon class="cls-15" points="65.5 226.61 51.08 255.25 79.92 255.25 65.5 226.61"/><path class="cls-15" d="M65.33,240.93h0a2.5,2.5,0,0,1,2.5,2.5v6.16a0,0,0,0,1,0,0h-5a0,0,0,0,1,0,0v-6.16A2.5,2.5,0,0,1,65.33,240.93Z"/><line class="cls-15" x1="63" y1="245.59" x2="67.73" y2="245.59"/><rect class="cls-10" x="51.18" y="259.58" width="28.64" height="24.97"/><rect class="cls-15" x="54.34" y="263.24" width="5.16" height="8.66"/><line class="cls-15" x1="54.51" y1="267.9" x2="59.46" y2="267.9"/><line class="cls-15" x1="56.84" y1="263.24" x2="56.84" y2="267.9"/><rect class="cls-15" x="70.99" y="263.24" width="5.16" height="8.66"/><line class="cls-15" x1="71.16" y1="267.9" x2="76.09" y2="267.9"/><line class="cls-15" x1="73.49" y1="263.24" x2="73.49" y2="267.9"/><polyline class="cls-15" points="62.72 284.55 62.72 274.76 67.88 274.76 67.88 284.55"/><line class="cls-15" x1="79.82" y1="259.58" x2="51.18" y2="259.58"/><line class="cls-15" x1="51.18" y1="255.25" x2="79.82" y2="255.25"/><polygon class="cls-16" points="292.89 347.89 292.89 347.89 292.91 317.79 292.89 347.89"/><path class="cls-16" d="M301.71,302.49h0Z"/><path class="cls-16" d="M301.74,308.24h0c4.88,0,8.84,4.28,8.84,9.55v30.1h4.74V317.17c0-8.1-6.08-14.66-13.58-14.68s-13.57,6.58-13.57,14.68l0,30.72h4.75v-30.1C292.91,312.52,296.86,308.25,301.74,308.24Z"/><polygon class="cls-16" points="288.15 347.89 288.17 317.17 288.15 347.89 288.15 347.89"/><path class="cls-16" d="M301.72,308.24h0Z"/><path class="cls-16" d="M297.73,318.21a4.18,4.18,0,0,1,4-4.34h0a4.19,4.19,0,0,1,4,4.34v29.68h4.82v-30.1c0-5.27-4-9.54-8.84-9.55s-8.83,4.28-8.83,9.55v30.1h4.82Z"/><polygon class="cls-16" points="301.73 313.87 301.74 313.87 301.75 313.87 301.73 313.87"/><path class="cls-16" d="M301.74,313.87a4.18,4.18,0,0,0-4,4.34v29.68h8V318.21A4.19,4.19,0,0,0,301.74,313.87Z"/><polygon class="cls-16" points="324.55 347.89 324.55 347.89 324.56 344.46 324.55 347.89"/><path class="cls-16" d="M333.37,329.16h0Z"/><path class="cls-16" d="M333.4,334.91h0c4.88,0,8.84,4.28,8.84,9.55v3.43H347v-4.05c0-8.1-6.08-14.66-13.58-14.68s-13.58,6.58-13.58,14.68v4.05h4.74v-3.43C324.56,339.19,328.52,334.92,333.4,334.91Z"/><polygon class="cls-16" points="319.81 347.89 319.82 343.84 319.81 347.89 319.81 347.89"/><path class="cls-16" d="M333.38,334.91h0Z"/><path class="cls-16" d="M329.38,344.88a4.19,4.19,0,0,1,4-4.34h0a4.19,4.19,0,0,1,4,4.34v3h4.82v-3.43c0-5.27-4-9.54-8.84-9.55s-8.84,4.28-8.84,9.55v3.43h4.82Z"/><polygon class="cls-16" points="333.39 340.54 333.4 340.54 333.41 340.54 333.39 340.54"/><path class="cls-16" d="M333.4,340.54a4.19,4.19,0,0,0-4,4.34v3h8.06v-3A4.19,4.19,0,0,0,333.4,340.54Z"/><path class="cls-13" d="M204.43,347.35h-70.8a.23.23,0,0,0-.23.23v11.58a.23.23,0,0,0,.23.23A14.59,14.59,0,0,1,148.21,374v9a.22.22,0,0,0,.22.23h5.79a.23.23,0,0,0,.23-.23v-9a14.58,14.58,0,0,1,29.16,0v9a.22.22,0,0,0,.22.23h5.79a.23.23,0,0,0,.23-.23v-9a14.59,14.59,0,0,1,14.58-14.57.22.22,0,0,0,.22-.23V347.58A.22.22,0,0,0,204.43,347.35Z"/><line class="cls-13" x1="204.43" y1="350.15" x2="133.63" y2="350.15"/><rect class="cls-13" x="134.48" y="363.57" width="33.7" height="6.85" transform="translate(518.33 215.67) rotate(90)"/><rect class="cls-13" x="169.48" y="363.57" width="33.7" height="6.85" transform="translate(553.33 180.67) rotate(90)"/><polyline class="cls-13" points="376.05 347.39 212.05 347.39 212.05 353.14 376.05 353.14"/><rect class="cls-10" x="198.3" y="349.4" width="16.5" height="49.45" transform="translate(413.1 748.25) rotate(-180)"/><polygon class="cls-10" points="223.67 337.65 232.6 349.4 232.53 349.4 232.53 398.85 214.8 398.85 214.8 349.4 214.74 349.4 223.67 337.65"/><polygon class="cls-10" points="214.75 349.39 223.65 337.62 207.15 337.66 198.25 349.43 214.75 349.39"/><rect class="cls-4" x="248.26" y="394.82" width="16.5" height="15.03" transform="translate(513.01 804.67) rotate(-180)"/><polygon class="cls-4" points="273.62 383.06 282.55 394.82 282.49 394.82 282.49 409.85 264.76 409.85 264.76 394.82 264.69 394.82 273.62 383.06"/><rect class="cls-4" x="273.54" y="401.11" width="5.42" height="8.74" transform="translate(552.5 810.96) rotate(-180)"/><polygon class="cls-4" points="264.71 394.81 273.61 383.03 257.11 383.07 248.21 394.85 264.71 394.81"/><rect class="cls-4" x="268.08" y="394.55" width="4.37" height="4.37" transform="translate(540.52 793.48) rotate(-180)"/><rect class="cls-15" x="201.8" y="352.96" width="2.19" height="2.19"/><rect class="cls-15" x="207.81" y="352.96" width="2.19" height="2.19"/><rect class="cls-15" x="201.8" y="358.43" width="2.19" height="2.19"/><rect class="cls-15" x="207.81" y="358.43" width="2.19" height="2.19"/><rect class="cls-15" x="201.8" y="363.89" width="2.19" height="2.19"/><rect class="cls-15" x="207.81" y="363.89" width="2.19" height="2.19"/><rect class="cls-15" x="201.8" y="369.35" width="2.19" height="2.19"/><rect class="cls-15" x="207.81" y="369.35" width="2.19" height="2.19"/><rect class="cls-15" x="201.8" y="374.81" width="2.19" height="2.19"/><rect class="cls-15" x="207.81" y="374.81" width="2.19" height="2.19"/><rect class="cls-15" x="201.8" y="380.28" width="2.19" height="2.19"/><rect class="cls-15" x="207.81" y="380.28" width="2.19" height="2.19"/><rect class="cls-15" x="201.8" y="385.74" width="2.19" height="2.19"/><rect class="cls-15" x="207.81" y="385.74" width="2.19" height="2.19"/><rect class="cls-15" x="201.8" y="391.2" width="2.19" height="2.19"/><rect class="cls-15" x="207.81" y="391.2" width="2.19" height="2.19"/><polyline class="cls-4" points="214.8 398.85 214.8 349.4 198.3 349.4"/><polyline class="cls-4" points="214.8 398.85 214.8 349.4 214.74 349.4 223.67 337.65"/><path class="cls-11" d="M226.23,355.94v-4.77a2.38,2.38,0,1,0-4.75,0v4.77Z"/><path class="cls-16" d="M226.23,355.94v-4.77a2.38,2.38,0,1,0-4.75,0v4.77Z"/><line class="cls-16" x1="226.25" y1="352.45" x2="221.49" y2="352.45"/><line class="cls-17" x1="223.87" y1="352.36" x2="223.87" y2="355.91"/><path class="cls-11" d="M226.23,370.94v-4.77a2.38,2.38,0,1,0-4.75,0v4.77Z"/><path class="cls-16" d="M226.23,370.94v-4.77a2.38,2.38,0,1,0-4.75,0v4.77Z"/><line class="cls-16" x1="226.25" y1="367.45" x2="221.49" y2="367.45"/><line class="cls-17" x1="223.87" y1="367.36" x2="223.87" y2="370.91"/><path class="cls-11" d="M226.23,385.94v-4.77a2.38,2.38,0,1,0-4.75,0v4.77Z"/><path class="cls-16" d="M226.23,385.94v-4.77a2.38,2.38,0,1,0-4.75,0v4.77Z"/><line class="cls-16" x1="226.25" y1="382.45" x2="221.49" y2="382.45"/><line class="cls-17" x1="223.87" y1="382.36" x2="223.87" y2="385.91"/><rect class="cls-9" x="204.74" y="262.84" width="41.59" height="32.58"/><polygon class="cls-14" points="73.75 390.64 73.75 390.64 73.76 379.21 73.75 390.64"/><path class="cls-2" d="M69,378.58c0-8.09,6.08-14.66,13.58-14.67h0c7.5,0,13.58,6.58,13.58,14.67v12.06h5.06V378.31c0-11.12-8.34-19.52-18.64-19.54S64,367.19,64,378.31v12.33H69Z"/><path class="cls-3" d="M69,378.58c0-8.09,6.08-14.66,13.58-14.67h0c7.5,0,13.58,6.58,13.58,14.67v12.06h5.06V378.31c0-11.12-8.34-19.52-18.64-19.54S64,367.19,64,378.31v12.33H69Z"/><path class="cls-2" d="M82.57,363.91h0Z"/><path class="cls-3" d="M82.57,363.91h0Z"/><path class="cls-2" d="M82.6,369.66h0c4.88,0,8.84,4.28,8.84,9.55v11.43h4.74V378.58c0-8.09-6.08-14.66-13.58-14.67S69,370.49,69,378.58v12.06h4.74V379.21C73.76,373.94,77.72,369.67,82.6,369.66Z"/><path class="cls-3" d="M82.6,369.66h0c4.88,0,8.84,4.28,8.84,9.55v11.43h4.74V378.58c0-8.09-6.08-14.66-13.58-14.67S69,370.49,69,378.58v12.06h4.74V379.21C73.76,373.94,77.72,369.67,82.6,369.66Z"/><polygon class="cls-2" points="69.01 390.64 69.02 378.58 69.01 390.64 69.01 390.64"/><polygon class="cls-3" points="69.01 390.64 69.02 378.58 69.01 390.64 69.01 390.64"/><path class="cls-2" d="M82.58,369.66h0Z"/><path class="cls-3" d="M82.58,369.66h0Z"/><path class="cls-2" d="M78.58,379.63a4.2,4.2,0,0,1,4-4.35h0a4.2,4.2,0,0,1,4,4.35v11h4.82V379.21c0-5.27-4-9.54-8.84-9.55s-8.84,4.28-8.84,9.55v11.43h4.82Z"/><path class="cls-3" d="M78.58,379.63a4.2,4.2,0,0,1,4-4.35h0a4.2,4.2,0,0,1,4,4.35v11h4.82V379.21c0-5.27-4-9.54-8.84-9.55s-8.84,4.28-8.84,9.55v11.43h4.82Z"/><polygon class="cls-2" points="82.59 375.28 82.6 375.28 82.61 375.28 82.59 375.28"/><polygon class="cls-3" points="82.59 375.28 82.6 375.28 82.61 375.28 82.59 375.28"/><path class="cls-2" d="M82.6,375.28a4.2,4.2,0,0,0-4,4.35v11h8.06v-11A4.2,4.2,0,0,0,82.6,375.28Z"/><path class="cls-3" d="M82.6,375.28a4.2,4.2,0,0,0-4,4.35v11h8.06v-11A4.2,4.2,0,0,0,82.6,375.28Z"/><path class="cls-2" d="M96.2,390.43V378.51c0-8.1-6.08-14.66-13.58-14.68S69,370.41,69,378.51v11.92"/><path class="cls-4" d="M96.2,390.43V378.51c0-8.1-6.08-14.66-13.58-14.68S69,370.41,69,378.51v11.92"/><path class="cls-2" d="M91.46,390.43l0-11.3c0-5.27-4-9.54-8.83-9.55s-8.84,4.28-8.84,9.55v11.3"/><path class="cls-4" d="M91.46,390.43l0-11.3c0-5.27-4-9.54-8.83-9.55s-8.84,4.28-8.84,9.55v11.3"/><path class="cls-2" d="M86.63,390.43V379.55a4,4,0,1,0-8,0v10.88"/><path class="cls-4" d="M86.63,390.43V379.55a4,4,0,1,0-8,0v10.88"/><polygon class="cls-13" points="324.52 420.93 324.52 420.93 324.54 409.63 324.52 420.93"/><path class="cls-2" d="M352,420.93V408.72c0-11.11-8.34-19.51-18.64-19.54s-18.64,8.43-18.64,19.54v12.21"/><path class="cls-4" d="M352,420.93V408.72c0-11.11-8.34-19.51-18.64-19.54s-18.64,8.43-18.64,19.54v12.21"/><path class="cls-2" d="M319.78,420.93V409c0-8.1,6.08-14.66,13.58-14.68h0c7.5,0,13.58,6.58,13.58,14.68v11.93"/><path class="cls-4" d="M319.78,420.93V409c0-8.1,6.08-14.66,13.58-14.68h0c7.5,0,13.58,6.58,13.58,14.68v11.93"/><path class="cls-2" d="M333.34,394.32h0Z"/><path class="cls-4" d="M333.34,394.32h0Z"/><path class="cls-2" d="M347,420.93V409c0-8.1-6.08-14.66-13.58-14.68S319.79,400.9,319.79,409v11.93"/><path class="cls-4" d="M347,420.93V409c0-8.1-6.08-14.66-13.58-14.68S319.79,400.9,319.79,409v11.93"/><path class="cls-2" d="M324.52,420.93v-11.3c0-5.27,4-9.55,8.84-9.56h0c4.88,0,8.84,4.29,8.84,9.56v11.3"/><path class="cls-4" d="M324.52,420.93v-11.3c0-5.27,4-9.55,8.84-9.56h0c4.88,0,8.84,4.29,8.84,9.56v11.3"/><polygon class="cls-2" points="319.78 420.93 319.79 409 319.78 420.93 319.78 420.93"/><polygon class="cls-4" points="319.78 420.93 319.79 409 319.78 420.93 319.78 420.93"/><path class="cls-2" d="M333.35,400.07h0Z"/><path class="cls-4" d="M333.35,400.07h0Z"/><path class="cls-2" d="M342.22,420.93v-11.3c0-5.27-4-9.55-8.84-9.56s-8.84,4.29-8.84,9.56v11.3"/><path class="cls-4" d="M342.22,420.93v-11.3c0-5.27-4-9.55-8.84-9.56s-8.84,4.29-8.84,9.56v11.3"/><path class="cls-2" d="M329.34,420.93l0-10.89a4.19,4.19,0,0,1,4-4.34h0a4.2,4.2,0,0,1,4,4.34v10.89"/><path class="cls-4" d="M329.34,420.93l0-10.89a4.19,4.19,0,0,1,4-4.34h0a4.2,4.2,0,0,1,4,4.34v10.89"/><polygon class="cls-2" points="333.36 405.7 333.37 405.7 333.38 405.7 333.36 405.7"/><polygon class="cls-4" points="333.36 405.7 333.37 405.7 333.38 405.7 333.36 405.7"/><path class="cls-2" d="M337.4,420.93V410a4,4,0,1,0-8,0l0,10.89"/><path class="cls-4" d="M337.4,420.93V410a4,4,0,1,0-8,0l0,10.89"/><polygon class="cls-13" points="291.87 50.99 291.87 50.99 291.88 20.55 291.87 50.99"/><path class="cls-2" d="M287.12,51l0-31.07c0-8.1,6.07-14.66,13.57-14.68h0c7.51,0,13.58,6.58,13.58,14.68V51"/><path class="cls-4" d="M287.12,51l0-31.07c0-8.1,6.07-14.66,13.57-14.68h0c7.51,0,13.58,6.58,13.58,14.68V51"/><path class="cls-2" d="M300.68,5.24h0Z"/><path class="cls-4" d="M300.68,5.24h0Z"/><path class="cls-5" d="M314.3,51V19.92c0-8.1-6.07-14.66-13.58-14.68s-13.57,6.58-13.57,14.68l0,31.07"/><path class="cls-4" d="M314.3,51V19.92c0-8.1-6.07-14.66-13.58-14.68s-13.57,6.58-13.57,14.68l0,31.07"/><path class="cls-2" d="M291.87,51V20.55c0-5.27,3.95-9.55,8.83-9.56h0c4.89,0,8.84,4.29,8.84,9.56V51"/><path class="cls-4" d="M291.87,51V20.55c0-5.27,3.95-9.55,8.83-9.56h0c4.89,0,8.84,4.29,8.84,9.56V51"/><polygon class="cls-2" points="287.12 50.99 287.14 19.92 287.12 50.99 287.12 50.99"/><polygon class="cls-4" points="287.12 50.99 287.14 19.92 287.12 50.99 287.12 50.99"/><path class="cls-2" d="M300.69,11h0Z"/><path class="cls-4" d="M300.69,11h0Z"/><path class="cls-5" d="M309.56,51V20.55c0-5.27-3.95-9.55-8.84-9.56s-8.83,4.29-8.83,9.56V51"/><path class="cls-4" d="M309.56,51V20.55c0-5.27-3.95-9.55-8.84-9.56s-8.83,4.29-8.83,9.56V51"/><path class="cls-2" d="M296.69,51V21a4.19,4.19,0,0,1,4-4.34h0a4.19,4.19,0,0,1,4,4.34V51"/><path class="cls-4" d="M296.69,51V21a4.19,4.19,0,0,1,4-4.34h0a4.19,4.19,0,0,1,4,4.34V51"/><polygon class="cls-2" points="300.7 16.62 300.71 16.62 300.72 16.62 300.7 16.62"/><polygon class="cls-4" points="300.7 16.62 300.71 16.62 300.72 16.62 300.7 16.62"/><path class="cls-5" d="M304.74,51V21a4,4,0,1,0-8,0V51"/><path class="cls-4" d="M304.74,51V21a4,4,0,1,0-8,0V51"/><polygon class="cls-13" points="380.88 106.01 380.88 106.01 380.89 102.58 380.88 106.01"/><path class="cls-2" d="M376.13,106l0-4.05c0-8.1,6.07-14.66,13.57-14.68h0c7.51,0,13.58,6.58,13.58,14.68V106"/><path class="cls-4" d="M376.13,106l0-4.05c0-8.1,6.07-14.66,13.57-14.68h0c7.51,0,13.58,6.58,13.58,14.68V106"/><path class="cls-2" d="M389.7,87.28h0Z"/><path class="cls-4" d="M389.7,87.28h0Z"/><path class="cls-2" d="M403.31,106V102c0-8.1-6.07-14.66-13.58-14.68S376.15,93.86,376.15,102V106"/><path class="cls-4" d="M403.31,106V102c0-8.1-6.07-14.66-13.58-14.68S376.15,93.86,376.15,102V106"/><path class="cls-2" d="M380.88,106v-3.42c0-5.27,3.95-9.55,8.83-9.56h0c4.89,0,8.84,4.29,8.84,9.56V106"/><path class="cls-4" d="M380.88,106v-3.42c0-5.27,3.95-9.55,8.83-9.56h0c4.89,0,8.84,4.29,8.84,9.56V106"/><polygon class="cls-2" points="376.13 106.01 376.15 101.96 376.13 106.01 376.13 106.01"/><polygon class="cls-4" points="376.13 106.01 376.15 101.96 376.13 106.01 376.13 106.01"/><path class="cls-2" d="M389.71,93h0Z"/><path class="cls-4" d="M389.71,93h0Z"/><path class="cls-2" d="M398.57,106v-3.42c0-5.27-3.95-9.55-8.84-9.56s-8.83,4.29-8.83,9.56V106"/><path class="cls-4" d="M398.57,106v-3.42c0-5.27-3.95-9.55-8.84-9.56s-8.83,4.29-8.83,9.56V106"/><path class="cls-2" d="M385.7,106v-3a4.19,4.19,0,0,1,4-4.34h0a4.19,4.19,0,0,1,4,4.34v3"/><path class="cls-4" d="M385.7,106v-3a4.19,4.19,0,0,1,4-4.34h0a4.19,4.19,0,0,1,4,4.34v3"/><polygon class="cls-2" points="389.72 98.66 389.73 98.66 389.73 98.66 389.72 98.66"/><polygon class="cls-4" points="389.72 98.66 389.73 98.66 389.73 98.66 389.72 98.66"/><path class="cls-2" d="M393.75,106v-3a4,4,0,1,0-8,0v3"/><path class="cls-4" d="M393.75,106v-3a4,4,0,1,0-8,0v3"/><polygon class="cls-4" points="324.58 50.99 324.58 50.99 324.59 47.56 324.58 50.99"/><path class="cls-4" d="M319.84,51V46.94c0-8.1,6.08-14.66,13.58-14.68h0c7.5,0,13.58,6.58,13.58,14.68V51"/><path class="cls-4" d="M333.4,32.26h0Z"/><path class="cls-4" d="M347,51V46.94c0-8.1-6.08-14.66-13.58-14.68s-13.58,6.58-13.58,14.68V51"/><path class="cls-4" d="M324.58,51V47.56c0-5.27,4-9.54,8.84-9.55h0c4.88,0,8.84,4.28,8.84,9.55V51"/><polygon class="cls-4" points="319.84 50.99 319.85 46.94 319.84 50.99 319.84 50.99"/><path class="cls-4" d="M333.41,38h0Z"/><path class="cls-4" d="M342.28,51V47.56c0-5.27-4-9.54-8.84-9.55s-8.84,4.28-8.84,9.55V51"/><path class="cls-4" d="M329.4,51V48a4.19,4.19,0,0,1,4-4.34h0a4.19,4.19,0,0,1,4,4.34v3"/><polygon class="cls-4" points="333.42 43.64 333.43 43.64 333.44 43.64 333.42 43.64"/><path class="cls-4" d="M337.46,51V48a4,4,0,1,0-8,0v3"/><polygon class="cls-4" points="324.56 179.93 324.56 179.93 324.57 168.43 324.56 179.93"/><path class="cls-4" d="M319.82,179.93V167.8c0-8.1,6.08-14.66,13.58-14.68h0c7.5,0,13.58,6.58,13.58,14.68v12.13"/><path class="cls-4" d="M333.38,153.12h0Z"/><path class="cls-4" d="M347,179.93V167.8c0-8.1-6.08-14.66-13.58-14.68s-13.58,6.58-13.58,14.68v12.13"/><path class="cls-4" d="M324.56,179.93v-11.5c0-5.27,4-9.55,8.84-9.56h0c4.88,0,8.83,4.29,8.83,9.56l0,11.5"/><polygon class="cls-4" points="319.82 179.93 319.83 167.8 319.82 179.93 319.82 179.93"/><path class="cls-4" d="M333.39,158.87h0Z"/><path class="cls-4" d="M342.26,179.93l0-11.5c0-5.27-3.95-9.55-8.83-9.56s-8.84,4.29-8.84,9.56v11.5"/><path class="cls-4" d="M329.38,179.93V168.84a4.2,4.2,0,0,1,4-4.34h0a4.19,4.19,0,0,1,4,4.34v11.09"/><polygon class="cls-4" points="333.4 164.5 333.41 164.5 333.42 164.5 333.4 164.5"/><path class="cls-4" d="M337.43,179.93V168.84a4,4,0,1,0-8,0v11.09"/><polygon class="cls-10" points="111.58 390.51 111.58 390.51 111.59 387.08 111.58 390.51"/><path class="cls-11" d="M106.85,386.46c0-8.1,6.08-14.66,13.58-14.68h0c7.5,0,13.58,6.58,13.58,14.68v4.05h5.06v-4.33c0-11.11-8.34-19.51-18.64-19.54s-18.64,8.43-18.64,19.54v4.33h5.06Z"/><path class="cls-19" d="M106.85,386.46c0-8.1,6.08-14.66,13.58-14.68h0c7.5,0,13.58,6.58,13.58,14.68v4.05h5.06v-4.33c0-11.11-8.34-19.51-18.64-19.54s-18.64,8.43-18.64,19.54v4.33h5.06Z"/><path class="cls-11" d="M120.4,371.78h0Z"/><path class="cls-12" d="M120.4,371.78h0Z"/><path class="cls-11" d="M120.43,377.53h0c4.88,0,8.84,4.29,8.84,9.55v3.43H134v-4.05c0-8.1-6.08-14.66-13.58-14.68s-13.58,6.58-13.58,14.68v4.05h4.74v-3.43C111.59,381.82,115.55,377.54,120.43,377.53Z"/><path class="cls-12" d="M120.43,377.53h0c4.88,0,8.84,4.29,8.84,9.55v3.43H134v-4.05c0-8.1-6.08-14.66-13.58-14.68s-13.58,6.58-13.58,14.68v4.05h4.74v-3.43C111.59,381.82,115.55,377.54,120.43,377.53Z"/><polygon class="cls-11" points="106.84 390.51 106.85 386.46 106.84 390.51 106.84 390.51"/><polygon class="cls-12" points="106.84 390.51 106.85 386.46 106.84 390.51 106.84 390.51"/><path class="cls-11" d="M120.41,377.53h0Z"/><path class="cls-12" d="M120.41,377.53h0Z"/><path class="cls-11" d="M116.41,387.5a4.19,4.19,0,0,1,4-4.34h0a4.19,4.19,0,0,1,4,4.34v3h4.82v-3.43c0-5.26-4-9.54-8.84-9.55s-8.84,4.29-8.84,9.55v3.43h4.82Z"/><path class="cls-12" d="M116.41,387.5a4.19,4.19,0,0,1,4-4.34h0a4.19,4.19,0,0,1,4,4.34v3h4.82v-3.43c0-5.26-4-9.54-8.84-9.55s-8.84,4.29-8.84,9.55v3.43h4.82Z"/><polygon class="cls-11" points="120.42 383.16 120.43 383.16 120.44 383.16 120.42 383.16"/><polygon class="cls-12" points="120.42 383.16 120.43 383.16 120.44 383.16 120.42 383.16"/><path class="cls-11" d="M120.43,383.16a4.19,4.19,0,0,0-4,4.34v3h8.06v-3A4.19,4.19,0,0,0,120.43,383.16Z"/><path class="cls-12" d="M120.43,383.16a4.19,4.19,0,0,0-4,4.34v3h8.06v-3A4.19,4.19,0,0,0,120.43,383.16Z"/><polygon class="cls-15" points="111.52 390.51 111.52 390.51 111.53 387.08 111.52 390.51"/><path class="cls-11" d="M106.78,390.51v-4.05c0-8.1,6.08-14.66,13.58-14.68h0c7.5,0,13.58,6.58,13.58,14.68v4.05"/><path class="cls-4" d="M106.78,390.51v-4.05c0-8.1,6.08-14.66,13.58-14.68h0c7.5,0,13.58,6.58,13.58,14.68v4.05"/><path class="cls-11" d="M120.34,371.78h0Z"/><path class="cls-4" d="M120.34,371.78h0Z"/><path class="cls-11" d="M134,390.51v-4.05c0-8.1-6.08-14.66-13.58-14.68s-13.58,6.58-13.58,14.68v4.05"/><path class="cls-4" d="M134,390.51v-4.05c0-8.1-6.08-14.66-13.58-14.68s-13.58,6.58-13.58,14.68v4.05"/><path class="cls-11" d="M111.52,390.51v-3.43c0-5.26,4-9.54,8.84-9.55h0c4.88,0,8.84,4.29,8.84,9.55v3.43"/><path class="cls-4" d="M111.52,390.51v-3.43c0-5.26,4-9.54,8.84-9.55h0c4.88,0,8.84,4.29,8.84,9.55v3.43"/><polygon class="cls-11" points="106.78 390.51 106.79 386.46 106.78 390.51 106.78 390.51"/><polygon class="cls-4" points="106.78 390.51 106.79 386.46 106.78 390.51 106.78 390.51"/><path class="cls-11" d="M120.35,377.53h0Z"/><path class="cls-4" d="M120.35,377.53h0Z"/><path class="cls-11" d="M129.22,390.51v-3.43c0-5.26-4-9.54-8.84-9.55s-8.84,4.29-8.84,9.55v3.43"/><path class="cls-4" d="M129.22,390.51v-3.43c0-5.26-4-9.54-8.84-9.55s-8.84,4.29-8.84,9.55v3.43"/><path class="cls-11" d="M116.34,390.51l0-3a4.19,4.19,0,0,1,4-4.34h0a4.19,4.19,0,0,1,4,4.34v3"/><path class="cls-4" d="M116.34,390.51l0-3a4.19,4.19,0,0,1,4-4.34h0a4.19,4.19,0,0,1,4,4.34v3"/><polygon class="cls-11" points="120.36 383.16 120.37 383.16 120.38 383.16 120.36 383.16"/><polygon class="cls-4" points="120.36 383.16 120.37 383.16 120.38 383.16 120.36 383.16"/><path class="cls-11" d="M124.4,390.51v-3a4,4,0,1,0-8,0l0,3"/><path class="cls-4" d="M124.4,390.51v-3a4,4,0,1,0-8,0l0,3"/><polygon class="cls-10" points="162.06 295.04 162.06 295.04 162.07 291.61 162.06 295.04"/><path class="cls-11" d="M157.33,291c0-8.09,6.07-14.66,13.57-14.68h0c7.51,0,13.58,6.59,13.58,14.68V295h5.07l0-4.33c0-11.12-8.34-19.52-18.64-19.54s-18.63,8.42-18.63,19.54l0,4.33h5.07Z"/><path class="cls-19" d="M157.33,291c0-8.09,6.07-14.66,13.57-14.68h0c7.51,0,13.58,6.59,13.58,14.68V295h5.07l0-4.33c0-11.12-8.34-19.52-18.64-19.54s-18.63,8.42-18.63,19.54l0,4.33h5.07Z"/><path class="cls-11" d="M170.88,276.3h0Z"/><path class="cls-12" d="M170.88,276.3h0Z"/><path class="cls-11" d="M170.9,282.05h0c4.89,0,8.84,4.29,8.84,9.56V295h4.74V291c0-8.09-6.07-14.66-13.58-14.68s-13.57,6.59-13.57,14.68V295h4.74v-3.43C162.07,286.34,166,282.07,170.9,282.05Z"/><path class="cls-12" d="M170.9,282.05h0c4.89,0,8.84,4.29,8.84,9.56V295h4.74V291c0-8.09-6.07-14.66-13.58-14.68s-13.57,6.59-13.57,14.68V295h4.74v-3.43C162.07,286.34,166,282.07,170.9,282.05Z"/><polygon class="cls-11" points="157.31 295.04 157.33 290.98 157.31 295.04 157.31 295.04"/><polygon class="cls-12" points="157.31 295.04 157.33 290.98 157.31 295.04 157.31 295.04"/><path class="cls-11" d="M170.89,282.05h0Z"/><path class="cls-12" d="M170.89,282.05h0Z"/><path class="cls-11" d="M166.89,292a4.2,4.2,0,0,1,4-4.34h0a4.2,4.2,0,0,1,4,4.34v3h4.82v-3.43c0-5.27-4-9.54-8.84-9.56s-8.83,4.29-8.83,9.56V295h4.82Z"/><path class="cls-12" d="M166.89,292a4.2,4.2,0,0,1,4-4.34h0a4.2,4.2,0,0,1,4,4.34v3h4.82v-3.43c0-5.27-4-9.54-8.84-9.56s-8.83,4.29-8.83,9.56V295h4.82Z"/><polygon class="cls-11" points="170.9 287.68 170.91 287.68 170.91 287.68 170.9 287.68"/><polygon class="cls-12" points="170.9 287.68 170.91 287.68 170.91 287.68 170.9 287.68"/><path class="cls-11" d="M170.9,287.68a4.2,4.2,0,0,0-4,4.34v3h8.05v-3A4.2,4.2,0,0,0,170.9,287.68Z"/><path class="cls-12" d="M170.9,287.68a4.2,4.2,0,0,0-4,4.34v3h8.05v-3A4.2,4.2,0,0,0,170.9,287.68Z"/><polygon class="cls-15" points="162 295.04 162 295.04 162.01 291.61 162 295.04"/><path class="cls-11" d="M157.26,295V291c0-8.09,6.08-14.66,13.58-14.68h0c7.5,0,13.57,6.59,13.57,14.68l0,4.06"/><path class="cls-4" d="M157.26,295V291c0-8.09,6.08-14.66,13.58-14.68h0c7.5,0,13.57,6.59,13.57,14.68l0,4.06"/><path class="cls-11" d="M170.82,276.3h0Z"/><path class="cls-4" d="M170.82,276.3h0Z"/><path class="cls-11" d="M184.44,295l0-4.06c0-8.09-6.07-14.66-13.57-14.68s-13.58,6.59-13.58,14.68V295"/><path class="cls-4" d="M184.44,295l0-4.06c0-8.09-6.07-14.66-13.57-14.68s-13.58,6.59-13.58,14.68V295"/><path class="cls-11" d="M162,295v-3.43c0-5.27,4-9.54,8.84-9.56h0c4.88,0,8.83,4.29,8.83,9.56V295"/><path class="cls-4" d="M162,295v-3.43c0-5.27,4-9.54,8.84-9.56h0c4.88,0,8.83,4.29,8.83,9.56V295"/><polygon class="cls-11" points="157.26 295.04 157.27 290.98 157.26 295.04 157.26 295.04"/><polygon class="cls-4" points="157.26 295.04 157.27 290.98 157.26 295.04 157.26 295.04"/><path class="cls-11" d="M170.83,282.05h0Z"/><path class="cls-4" d="M170.83,282.05h0Z"/><path class="cls-11" d="M179.69,295v-3.43c0-5.27-4-9.54-8.83-9.56s-8.84,4.29-8.84,9.56V295"/><path class="cls-4" d="M179.69,295v-3.43c0-5.27-4-9.54-8.83-9.56s-8.84,4.29-8.84,9.56V295"/><path class="cls-11" d="M166.82,295v-3a4.2,4.2,0,0,1,4-4.34h0a4.19,4.19,0,0,1,4,4.34v3"/><path class="cls-4" d="M166.82,295v-3a4.2,4.2,0,0,1,4-4.34h0a4.19,4.19,0,0,1,4,4.34v3"/><polygon class="cls-11" points="170.84 287.68 170.85 287.68 170.85 287.68 170.84 287.68"/><polygon class="cls-4" points="170.84 287.68 170.85 287.68 170.85 287.68 170.84 287.68"/><path class="cls-11" d="M174.87,295v-3a4,4,0,1,0-8,0v3"/><path class="cls-4" d="M174.87,295v-3a4,4,0,1,0-8,0v3"/><polygon class="cls-13" points="124.56 295.03 124.56 295.03 124.57 283.73 124.56 295.03"/><path class="cls-2" d="M152.05,295V282.82c0-11.11-8.34-19.51-18.64-19.54s-18.63,8.43-18.63,19.54l0,12.21"/><path class="cls-4" d="M152.05,295V282.82c0-11.11-8.34-19.51-18.64-19.54s-18.63,8.43-18.63,19.54l0,12.21"/><path class="cls-2" d="M119.81,295l0-11.93c0-8.1,6.07-14.66,13.57-14.68h0c7.5,0,13.58,6.58,13.58,14.68V295"/><path class="cls-4" d="M119.81,295l0-11.93c0-8.1,6.07-14.66,13.57-14.68h0c7.5,0,13.58,6.58,13.58,14.68V295"/><path class="cls-2" d="M133.37,268.42h0Z"/><path class="cls-4" d="M133.37,268.42h0Z"/><path class="cls-2" d="M147,295V283.1c0-8.1-6.08-14.66-13.58-14.68S119.83,275,119.83,283.1l0,11.93"/><path class="cls-4" d="M147,295V283.1c0-8.1-6.08-14.66-13.58-14.68S119.83,275,119.83,283.1l0,11.93"/><path class="cls-2" d="M124.56,295v-11.3c0-5.27,4-9.55,8.83-9.56h0c4.89,0,8.84,4.29,8.84,9.56V295"/><path class="cls-4" d="M124.56,295v-11.3c0-5.27,4-9.55,8.83-9.56h0c4.89,0,8.84,4.29,8.84,9.56V295"/><polygon class="cls-2" points="119.81 295.03 119.83 283.1 119.81 295.03 119.81 295.03"/><polygon class="cls-4" points="119.81 295.03 119.83 283.1 119.81 295.03 119.81 295.03"/><path class="cls-2" d="M133.38,274.17h0Z"/><path class="cls-4" d="M133.38,274.17h0Z"/><path class="cls-2" d="M142.25,295v-11.3c0-5.27-4-9.55-8.84-9.56s-8.83,4.29-8.83,9.56V295"/><path class="cls-4" d="M142.25,295v-11.3c0-5.27-4-9.55-8.84-9.56s-8.83,4.29-8.83,9.56V295"/><path class="cls-2" d="M129.38,295V284.14a4.19,4.19,0,0,1,4-4.34h0a4.2,4.2,0,0,1,4,4.34V295"/><path class="cls-4" d="M129.38,295V284.14a4.19,4.19,0,0,1,4-4.34h0a4.2,4.2,0,0,1,4,4.34V295"/><polygon class="cls-2" points="133.4 279.8 133.4 279.8 133.41 279.8 133.4 279.8"/><polygon class="cls-4" points="133.4 279.8 133.4 279.8 133.41 279.8 133.4 279.8"/><path class="cls-2" d="M137.43,295V284.14a4,4,0,1,0-8,0V295"/><path class="cls-4" d="M137.43,295V284.14a4,4,0,1,0-8,0V295"/><path class="cls-11" d="M283.32,171.23a4.19,4.19,0,0,0-4,4.34v3h8.06v-3A4.19,4.19,0,0,0,283.32,171.23Z"/><path class="cls-12" d="M283.32,171.23a4.19,4.19,0,0,0-4,4.34v3h8.06v-3A4.19,4.19,0,0,0,283.32,171.23Z"/><path class="cls-11" d="M97.51,256.79a4.19,4.19,0,0,0-4,4.34v3h8v-3A4.19,4.19,0,0,0,97.51,256.79Z"/><path class="cls-12" d="M97.51,256.79a4.19,4.19,0,0,0-4,4.34v3h8v-3A4.19,4.19,0,0,0,97.51,256.79Z"/><path class="cls-11" d="M204.74,322.53a4.2,4.2,0,0,0-4,4.34v3h8.06v-3A4.2,4.2,0,0,0,204.74,322.53Z"/><path class="cls-12" d="M204.74,322.53a4.2,4.2,0,0,0-4,4.34v3h8.06v-3A4.2,4.2,0,0,0,204.74,322.53Z"/><path class="cls-11" d="M218.75,315.26a4.19,4.19,0,0,0-4,4.34v3h8.05v-3A4.2,4.2,0,0,0,218.75,315.26Z"/><path class="cls-12" d="M218.75,315.26a4.19,4.19,0,0,0-4,4.34v3h8.05v-3A4.2,4.2,0,0,0,218.75,315.26Z"/><path class="cls-11" d="M254,121.86a4.19,4.19,0,0,0-4,4.34v3h8v-3A4.2,4.2,0,0,0,254,121.86Z"/><path class="cls-12" d="M254,121.86a4.19,4.19,0,0,0-4,4.34v3h8v-3A4.2,4.2,0,0,0,254,121.86Z"/><path class="cls-11" d="M201.3,416.58a4.19,4.19,0,0,0-4,4.34v3h8.06v-3A4.19,4.19,0,0,0,201.3,416.58Z"/><path class="cls-12" d="M201.3,416.58a4.19,4.19,0,0,0-4,4.34v3h8.06v-3A4.19,4.19,0,0,0,201.3,416.58Z"/><path class="cls-11" d="M310.59,273.49a4.19,4.19,0,0,0-4,4.34v3h8.06v-3A4.19,4.19,0,0,0,310.59,273.49Z"/><path class="cls-12" d="M310.59,273.49a4.19,4.19,0,0,0-4,4.34v3h8.06v-3A4.19,4.19,0,0,0,310.59,273.49Z"/><path class="cls-11" d="M353.63,97a4.19,4.19,0,0,0-4,4.34v3h8v-3A4.18,4.18,0,0,0,353.63,97Z"/><path class="cls-12" d="M353.63,97a4.19,4.19,0,0,0-4,4.34v3h8v-3A4.18,4.18,0,0,0,353.63,97Z"/><line class="cls-13" x1="163.25" y1="325.34" x2="33.65" y2="325.34"/><line class="cls-13" x1="163.25" y1="319.59" x2="33.65" y2="319.59"/><line class="cls-13" x1="435.03" y1="263.04" x2="256.59" y2="263.04"/><line class="cls-13" x1="204.28" y1="295.18" x2="33.55" y2="295.18"/><polygon class="cls-8" points="10.15 252.89 10.15 252.89 10.16 249.46 10.15 252.89"/><path class="cls-5" d="M5.42,248.84c0-8.1,6.08-14.66,13.58-14.68h0c7.5,0,13.58,6.58,13.58,14.68v4h5.06v-4.33C37.64,237.45,29.3,229,19,229S.36,237.45.36,248.56v4.33H5.41Z"/><path class="cls-6" d="M5.42,248.84c0-8.1,6.08-14.66,13.58-14.68h0c7.5,0,13.58,6.58,13.58,14.68v4h5.06v-4.33C37.64,237.45,29.3,229,19,229S.36,237.45.36,248.56v4.33H5.41Z"/><path class="cls-5" d="M19,234.16h0Z"/><path class="cls-6" d="M19,234.16h0Z"/><path class="cls-5" d="M19,239.91h0c4.88,0,8.84,4.28,8.84,9.55v3.43h4.74v-4c0-8.1-6.08-14.66-13.58-14.68S5.42,240.74,5.42,248.84v4h4.74v-3.43C10.16,244.19,14.12,239.92,19,239.91Z"/><path class="cls-6" d="M19,239.91h0c4.88,0,8.84,4.28,8.84,9.55v3.43h4.74v-4c0-8.1-6.08-14.66-13.58-14.68S5.42,240.74,5.42,248.84v4h4.74v-3.43C10.16,244.19,14.12,239.92,19,239.91Z"/><polygon class="cls-5" points="5.41 252.89 5.42 248.84 5.41 252.89 5.41 252.89"/><polygon class="cls-6" points="5.41 252.89 5.42 248.84 5.41 252.89 5.41 252.89"/><path class="cls-5" d="M19,239.91h0Z"/><path class="cls-6" d="M19,239.91h0Z"/><path class="cls-5" d="M15,249.88a4.19,4.19,0,0,1,4-4.34h0a4.19,4.19,0,0,1,4,4.34v3h4.82v-3.43c0-5.27-4-9.54-8.84-9.55s-8.84,4.28-8.84,9.55v3.43H15Z"/><path class="cls-6" d="M15,249.88a4.19,4.19,0,0,1,4-4.34h0a4.19,4.19,0,0,1,4,4.34v3h4.82v-3.43c0-5.27-4-9.54-8.84-9.55s-8.84,4.28-8.84,9.55v3.43H15Z"/><polygon class="cls-5" points="18.99 245.54 19 245.54 19.01 245.54 18.99 245.54"/><polygon class="cls-6" points="18.99 245.54 19 245.54 19.01 245.54 18.99 245.54"/><path class="cls-5" d="M19,245.54a4.19,4.19,0,0,0-4,4.34v3H23v-3A4.19,4.19,0,0,0,19,245.54Z"/><path class="cls-6" d="M19,245.54a4.19,4.19,0,0,0-4,4.34v3H23v-3A4.19,4.19,0,0,0,19,245.54Z"/><polygon class="cls-13" points="10.12 252.62 10.12 252.62 10.13 249.19 10.12 252.62"/><path class="cls-2" d="M5.38,252.62v-4.06c0-8.09,6.08-14.66,13.58-14.68h0c7.5,0,13.58,6.59,13.58,14.68v4.06"/><path class="cls-4" d="M5.38,252.62v-4.06c0-8.09,6.08-14.66,13.58-14.68h0c7.5,0,13.58,6.59,13.58,14.68v4.06"/><path class="cls-2" d="M18.94,233.88h0Z"/><path class="cls-4" d="M18.94,233.88h0Z"/><path class="cls-5" d="M32.56,252.62v-4.06c0-8.09-6.08-14.66-13.58-14.68S5.39,240.47,5.39,248.56v4.06"/><path class="cls-4" d="M32.56,252.62v-4.06c0-8.09-6.08-14.66-13.58-14.68S5.39,240.47,5.39,248.56v4.06"/><path class="cls-2" d="M10.12,252.62v-3.43c0-5.27,4-9.54,8.84-9.56h0c4.88,0,8.84,4.29,8.84,9.56v3.43"/><path class="cls-4" d="M10.12,252.62v-3.43c0-5.27,4-9.54,8.84-9.56h0c4.88,0,8.84,4.29,8.84,9.56v3.43"/><polygon class="cls-2" points="5.38 252.62 5.39 248.56 5.38 252.62 5.38 252.62"/><polygon class="cls-4" points="5.38 252.62 5.39 248.56 5.38 252.62 5.38 252.62"/><path class="cls-2" d="M19,239.63h0Z"/><path class="cls-4" d="M19,239.63h0Z"/><path class="cls-5" d="M27.82,252.62v-3.43c0-5.27-4-9.54-8.84-9.56s-8.84,4.29-8.84,9.56v3.43"/><path class="cls-4" d="M27.82,252.62v-3.43c0-5.27-4-9.54-8.84-9.56s-8.84,4.29-8.84,9.56v3.43"/><path class="cls-2" d="M14.94,252.62l0-3a4.19,4.19,0,0,1,4-4.34h0a4.2,4.2,0,0,1,4,4.34v3"/><path class="cls-4" d="M14.94,252.62l0-3a4.19,4.19,0,0,1,4-4.34h0a4.2,4.2,0,0,1,4,4.34v3"/><polygon class="cls-2" points="18.96 245.26 18.97 245.26 18.98 245.26 18.96 245.26"/><polygon class="cls-4" points="18.96 245.26 18.97 245.26 18.98 245.26 18.96 245.26"/><path class="cls-5" d="M23,252.62v-3a4.2,4.2,0,0,0-4-4.34,4.19,4.19,0,0,0-4,4.34l0,3"/><path class="cls-4" d="M23,252.62v-3a4.2,4.2,0,0,0-4-4.34,4.19,4.19,0,0,0-4,4.34l0,3"/><circle class="cls-12" cx="162.9" cy="261.15" r="5.99"/><circle class="cls-12" cx="162.9" cy="261.15" r="2.64"/><circle class="cls-12" cx="334.38" cy="135.59" r="5.99"/><circle class="cls-12" cx="334.38" cy="135.59" r="2.64"/><circle class="cls-12" cx="357.15" cy="279.8" r="5.99"/><circle class="cls-12" cx="357.15" cy="279.8" r="2.64"/><circle class="cls-12" cx="189.33" cy="408.31" r="5.99"/><circle class="cls-12" cx="189.33" cy="408.31" r="2.64"/><line class="cls-4" x1="288.27" y1="361.21" x2="288.27" y2="394.81"/><polygon class="cls-4" points="288.27 372.66 282.62 367.44 282.62 363.53 288.27 368.75 288.27 372.66"/><polygon class="cls-4" points="288.27 376.57 282.62 371.36 282.62 367.44 288.27 372.66 288.27 376.57"/><polygon class="cls-4" points="288.27 380.49 282.62 375.27 282.62 371.36 288.27 376.57 288.27 380.49"/><polygon class="cls-4" points="288.27 384.4 282.62 379.18 282.62 375.27 288.27 380.49 288.27 384.4"/><polygon class="cls-4" points="288.27 388.31 282.62 383.09 282.62 379.18 288.27 384.4 288.27 388.31"/><polygon class="cls-4" points="288.27 372.66 293.92 367.44 293.92 363.53 288.27 368.75 288.27 372.66"/><polygon class="cls-4" points="288.27 376.57 293.92 371.36 293.92 367.44 288.27 372.66 288.27 376.57"/><polygon class="cls-4" points="288.27 380.49 293.92 375.27 293.92 371.36 288.27 376.57 288.27 380.49"/><polygon class="cls-4" points="288.27 384.4 293.92 379.18 293.92 375.27 288.27 380.49 288.27 384.4"/><polygon class="cls-4" points="288.27 388.31 293.92 383.09 293.92 379.18 288.27 384.4 288.27 388.31"/><line class="cls-4" x1="303.96" y1="369.54" x2="303.96" y2="403.15"/><polygon class="cls-4" points="303.96 381 298.31 375.78 298.31 371.87 303.96 377.09 303.96 381"/><polygon class="cls-4" points="303.96 384.91 298.31 379.69 298.31 375.78 303.96 381 303.96 384.91"/><polygon class="cls-4" points="303.96 388.82 298.31 383.61 298.31 379.69 303.96 384.91 303.96 388.82"/><polygon class="cls-4" points="303.96 392.73 298.31 387.52 298.31 383.61 303.96 388.82 303.96 392.73"/><polygon class="cls-4" points="303.96 396.65 298.31 391.43 298.31 387.52 303.96 392.73 303.96 396.65"/><polygon class="cls-4" points="303.96 381 309.61 375.78 309.61 371.87 303.96 377.09 303.96 381"/><polygon class="cls-4" points="303.96 384.91 309.61 379.69 309.61 375.78 303.96 381 303.96 384.91"/><polygon class="cls-4" points="303.96 388.82 309.61 383.61 309.61 379.69 303.96 384.91 303.96 388.82"/><polygon class="cls-4" points="303.96 392.73 309.61 387.52 309.61 383.61 303.96 388.82 303.96 392.73"/><polygon class="cls-4" points="303.96 396.65 309.61 391.43 309.61 387.52 303.96 392.73 303.96 396.65"/><line class="cls-13" x1="304.45" y1="113.22" x2="239.09" y2="113.22"/><line class="cls-13" x1="376.01" y1="113.22" x2="315.11" y2="113.22"/><line class="cls-13" x1="304.45" y1="107.47" x2="239.09" y2="107.47"/><line class="cls-13" x1="304.45" y1="101.72" x2="239.09" y2="101.72"/><line class="cls-13" x1="304.45" y1="95.97" x2="239.09" y2="95.97"/><line class="cls-13" x1="304.45" y1="90.47" x2="239.09" y2="90.47"/><line class="cls-13" x1="304.45" y1="84.72" x2="239.09" y2="84.72"/><line class="cls-4" x1="376.05" y1="347.39" x2="376.05" y2="263.24"/><line class="cls-13" x1="133.05" y1="353.5" x2="101.38" y2="353.5"/><line class="cls-15" x1="314.75" y1="179.89" x2="372.25" y2="179.89"/><line class="cls-4" x1="238.39" y1="368.92" x2="238.39" y2="421.25"/><line class="cls-4" x1="173.79" y1="368.92" x2="173.79" y2="448.57"/><line class="cls-4" x1="163.45" y1="305.68" x2="163.45" y2="347.35"/><line class="cls-4" x1="304.77" y1="61.68" x2="304.77" y2="252.49"/><polygon class="cls-2" points="440.55 339.49 440.55 339.49 440.56 336.36 440.55 339.49"/><path class="cls-2" d="M435.82,335.74c0-8.1,6.08-14.66,13.58-14.68h0c7.5,0,13.58,6.58,13.58,14.68v3.75h5.06v-4c0-11.11-8.34-19.52-18.64-19.54s-18.64,8.43-18.64,19.54v4h5.06Z"/><path class="cls-2" d="M449.37,321.06h0Z"/><path class="cls-2" d="M449.4,326.81h0c4.88,0,8.84,4.28,8.84,9.55v3.13H463v-3.75c0-8.1-6.08-14.66-13.58-14.68s-13.58,6.58-13.58,14.68v3.75h4.74v-3.13C440.56,331.09,444.52,326.82,449.4,326.81Z"/><polygon class="cls-2" points="435.81 339.49 435.82 335.74 435.81 339.49 435.81 339.49"/><path class="cls-2" d="M449.38,326.81h0Z"/><path class="cls-2" d="M445.38,336.78a4.19,4.19,0,0,1,4-4.34h0a4.19,4.19,0,0,1,4,4.34v2.71h4.82v-3.13c0-5.27-4-9.54-8.84-9.55s-8.84,4.28-8.84,9.55v3.13h4.82Z"/><polygon class="cls-2" points="449.39 332.44 449.4 332.44 449.41 332.44 449.39 332.44"/><path class="cls-2" d="M449.4,332.44a4.19,4.19,0,0,0-4,4.34v2.71h8.06v-2.71A4.19,4.19,0,0,0,449.4,332.44Z"/><path class="cls-2" d="M435.78,339.19v-3.45c0-8.1,6.08-14.66,13.58-14.68h0c7.5,0,13.58,6.58,13.58,14.68v3.45"/><path class="cls-4" d="M435.78,339.19v-3.45c0-8.1,6.08-14.66,13.58-14.68h0c7.5,0,13.58,6.58,13.58,14.68v3.45"/><path class="cls-2" d="M449.34,321.06h0Z"/><path class="cls-4" d="M449.34,321.06h0Z"/><path class="cls-2" d="M463,338.19v-2.45c0-8.1-6.08-14.66-13.58-14.68s-13.58,6.58-13.58,14.68v3.45"/><path class="cls-4" d="M463,338.19v-2.45c0-8.1-6.08-14.66-13.58-14.68s-13.58,6.58-13.58,14.68v3.45"/><path class="cls-2" d="M440.52,339.19v-2.83c0-5.27,4-9.54,8.84-9.55h0c4.88,0,8.84,4.28,8.84,9.55v2.83"/><path class="cls-4" d="M440.52,339.19v-2.83c0-5.27,4-9.54,8.84-9.55h0c4.88,0,8.84,4.28,8.84,9.55v2.83"/><path class="cls-2" d="M449.35,326.81h0Z"/><path class="cls-4" d="M449.35,326.81h0Z"/><path class="cls-2" d="M458.22,338.19v-1.83c0-5.27-4-9.54-8.84-9.55s-8.84,4.28-8.84,9.55v1.83"/><path class="cls-4" d="M458.22,338.19v-1.83c0-5.27-4-9.54-8.84-9.55s-8.84,4.28-8.84,9.55v1.83"/><path class="cls-2" d="M445.34,339.19l0-2.41a4.18,4.18,0,0,1,4-4.34h0a4.19,4.19,0,0,1,4,4.34v2.41"/><path class="cls-4" d="M445.34,339.19l0-2.41a4.18,4.18,0,0,1,4-4.34h0a4.19,4.19,0,0,1,4,4.34v2.41"/><polygon class="cls-2" points="449.36 332.44 449.37 332.44 449.38 332.44 449.36 332.44"/><polygon class="cls-4" points="449.36 332.44 449.37 332.44 449.38 332.44 449.36 332.44"/><path class="cls-2" d="M453.4,338.19v-1.41a4,4,0,1,0-8,0l0,1.41"/><path class="cls-4" d="M453.4,338.19v-1.41a4,4,0,1,0-8,0l0,1.41"/></svg>